<mxfile host="app.diagrams.net" modified="2023-03-30T03:58:01.798Z" agent="Mozilla/5.0 (X11; Linux x86_64) AppleWebKit/537.36 (KHTML, like Gecko) Chrome/105.0.0.0 Safari/537.36" etag="AEZ1__eTo-HsJ-uy7skT" version="21.1.1" type="device" pages="2">
  <diagram name="Figure 1" id="WUAA0PB4JeqmRfL2tpBq">
    <mxGraphModel dx="4148" dy="3447" grid="1" gridSize="10" guides="1" tooltips="1" connect="1" arrows="1" fold="1" page="1" pageScale="1" pageWidth="827" pageHeight="1169" math="1" shadow="0">
      <root>
        <mxCell id="0" />
        <mxCell id="1" parent="0" />
        <mxCell id="bA6Z128UuXlaUtjKn_8Y-1" value="" style="whiteSpace=wrap;html=1;fillColor=none;dashed=1;strokeWidth=2;" vertex="1" parent="1">
          <mxGeometry x="40" y="80" width="1030" height="680" as="geometry" />
        </mxCell>
        <mxCell id="bA6Z128UuXlaUtjKn_8Y-3" value="" style="whiteSpace=wrap;html=1;fillColor=none;dashed=1;dashPattern=8 8;strokeWidth=2;" vertex="1" parent="1">
          <mxGeometry x="650" y="-40" width="2730" height="1150" as="geometry" />
        </mxCell>
        <mxCell id="e0liQvdCcjfhZNM5xDvp-1" value="" style="rounded=0;whiteSpace=wrap;html=1;strokeWidth=2;fontSize=20;fontStyle=1" vertex="1" parent="1">
          <mxGeometry x="110" y="240" width="60" height="60" as="geometry" />
        </mxCell>
        <mxCell id="e0liQvdCcjfhZNM5xDvp-2" value="" style="rounded=0;whiteSpace=wrap;html=1;strokeWidth=2;fontSize=20;fontStyle=1" vertex="1" parent="1">
          <mxGeometry x="170" y="240" width="60" height="60" as="geometry" />
        </mxCell>
        <mxCell id="e0liQvdCcjfhZNM5xDvp-3" value="" style="rounded=0;whiteSpace=wrap;html=1;strokeWidth=2;fontSize=20;fontStyle=1" vertex="1" parent="1">
          <mxGeometry x="230" y="240" width="60" height="60" as="geometry" />
        </mxCell>
        <mxCell id="e0liQvdCcjfhZNM5xDvp-4" value="" style="rounded=0;whiteSpace=wrap;html=1;strokeWidth=2;fontSize=20;fontStyle=1" vertex="1" parent="1">
          <mxGeometry x="290" y="240" width="60" height="60" as="geometry" />
        </mxCell>
        <mxCell id="e0liQvdCcjfhZNM5xDvp-5" value="" style="rounded=0;whiteSpace=wrap;html=1;strokeWidth=2;fontSize=20;fontStyle=1" vertex="1" parent="1">
          <mxGeometry x="350" y="240" width="60" height="60" as="geometry" />
        </mxCell>
        <mxCell id="e0liQvdCcjfhZNM5xDvp-6" value="" style="rounded=0;whiteSpace=wrap;html=1;strokeWidth=2;fontSize=20;fontStyle=1" vertex="1" parent="1">
          <mxGeometry x="410" y="240" width="60" height="60" as="geometry" />
        </mxCell>
        <mxCell id="e0liQvdCcjfhZNM5xDvp-7" value="A1" style="text;html=1;align=center;verticalAlign=middle;resizable=0;points=[];autosize=1;strokeColor=none;fillColor=none;strokeWidth=2;fontSize=20;fontStyle=1" vertex="1" parent="1">
          <mxGeometry x="115" y="205" width="50" height="40" as="geometry" />
        </mxCell>
        <mxCell id="e0liQvdCcjfhZNM5xDvp-8" value="A2" style="text;html=1;align=center;verticalAlign=middle;resizable=0;points=[];autosize=1;strokeColor=none;fillColor=none;strokeWidth=2;fontSize=20;fontStyle=1" vertex="1" parent="1">
          <mxGeometry x="175" y="205" width="50" height="40" as="geometry" />
        </mxCell>
        <mxCell id="e0liQvdCcjfhZNM5xDvp-9" value="A3" style="text;html=1;align=center;verticalAlign=middle;resizable=0;points=[];autosize=1;strokeColor=none;fillColor=none;strokeWidth=2;fontSize=20;fontStyle=1" vertex="1" parent="1">
          <mxGeometry x="235" y="205" width="50" height="40" as="geometry" />
        </mxCell>
        <mxCell id="e0liQvdCcjfhZNM5xDvp-10" value="A4" style="text;html=1;align=center;verticalAlign=middle;resizable=0;points=[];autosize=1;strokeColor=none;fillColor=none;strokeWidth=2;fontSize=20;fontStyle=1" vertex="1" parent="1">
          <mxGeometry x="295" y="205" width="50" height="40" as="geometry" />
        </mxCell>
        <mxCell id="e0liQvdCcjfhZNM5xDvp-11" value="An" style="text;html=1;align=center;verticalAlign=middle;resizable=0;points=[];autosize=1;strokeColor=none;fillColor=none;strokeWidth=2;fontSize=20;fontStyle=1" vertex="1" parent="1">
          <mxGeometry x="415" y="205" width="50" height="40" as="geometry" />
        </mxCell>
        <mxCell id="e0liQvdCcjfhZNM5xDvp-12" value="..." style="text;html=1;align=center;verticalAlign=middle;resizable=0;points=[];autosize=1;strokeColor=none;fillColor=none;strokeWidth=2;fontSize=20;fontStyle=1" vertex="1" parent="1">
          <mxGeometry x="360" y="205" width="40" height="40" as="geometry" />
        </mxCell>
        <mxCell id="e0liQvdCcjfhZNM5xDvp-13" value="" style="rounded=0;whiteSpace=wrap;html=1;strokeWidth=2;fontSize=20;fontStyle=1" vertex="1" parent="1">
          <mxGeometry x="110" y="320" width="60" height="60" as="geometry" />
        </mxCell>
        <mxCell id="e0liQvdCcjfhZNM5xDvp-14" value="" style="rounded=0;whiteSpace=wrap;html=1;strokeWidth=2;fontSize=20;fontStyle=1" vertex="1" parent="1">
          <mxGeometry x="170" y="320" width="60" height="60" as="geometry" />
        </mxCell>
        <mxCell id="e0liQvdCcjfhZNM5xDvp-15" value="" style="rounded=0;whiteSpace=wrap;html=1;strokeWidth=2;fontSize=20;fontStyle=1" vertex="1" parent="1">
          <mxGeometry x="230" y="320" width="60" height="60" as="geometry" />
        </mxCell>
        <mxCell id="e0liQvdCcjfhZNM5xDvp-16" value="" style="rounded=0;whiteSpace=wrap;html=1;strokeWidth=2;fontSize=20;fontStyle=1" vertex="1" parent="1">
          <mxGeometry x="290" y="320" width="60" height="60" as="geometry" />
        </mxCell>
        <mxCell id="e0liQvdCcjfhZNM5xDvp-17" value="" style="rounded=0;whiteSpace=wrap;html=1;strokeWidth=2;fontSize=20;fontStyle=1" vertex="1" parent="1">
          <mxGeometry x="350" y="320" width="60" height="60" as="geometry" />
        </mxCell>
        <mxCell id="e0liQvdCcjfhZNM5xDvp-18" value="" style="rounded=0;whiteSpace=wrap;html=1;strokeWidth=2;fontSize=20;fontStyle=1" vertex="1" parent="1">
          <mxGeometry x="410" y="320" width="60" height="60" as="geometry" />
        </mxCell>
        <mxCell id="e0liQvdCcjfhZNM5xDvp-25" value="U1" style="text;html=1;align=center;verticalAlign=middle;resizable=0;points=[];autosize=1;strokeColor=none;fillColor=none;strokeWidth=2;fontSize=20;fontStyle=1" vertex="1" parent="1">
          <mxGeometry x="65" y="250" width="50" height="40" as="geometry" />
        </mxCell>
        <mxCell id="e0liQvdCcjfhZNM5xDvp-26" value="U2" style="text;html=1;align=center;verticalAlign=middle;resizable=0;points=[];autosize=1;strokeColor=none;fillColor=none;strokeWidth=2;fontSize=20;fontStyle=1" vertex="1" parent="1">
          <mxGeometry x="65" y="330" width="50" height="40" as="geometry" />
        </mxCell>
        <mxCell id="e0liQvdCcjfhZNM5xDvp-27" value="" style="rounded=0;whiteSpace=wrap;html=1;strokeWidth=2;fontSize=20;fontStyle=1" vertex="1" parent="1">
          <mxGeometry x="110" y="400" width="60" height="60" as="geometry" />
        </mxCell>
        <mxCell id="e0liQvdCcjfhZNM5xDvp-28" value="" style="rounded=0;whiteSpace=wrap;html=1;strokeWidth=2;fontSize=20;fontStyle=1" vertex="1" parent="1">
          <mxGeometry x="170" y="400" width="60" height="60" as="geometry" />
        </mxCell>
        <mxCell id="e0liQvdCcjfhZNM5xDvp-29" value="" style="rounded=0;whiteSpace=wrap;html=1;strokeWidth=2;fontSize=20;fontStyle=1" vertex="1" parent="1">
          <mxGeometry x="230" y="400" width="60" height="60" as="geometry" />
        </mxCell>
        <mxCell id="e0liQvdCcjfhZNM5xDvp-30" value="" style="rounded=0;whiteSpace=wrap;html=1;strokeWidth=2;fontSize=20;fontStyle=1" vertex="1" parent="1">
          <mxGeometry x="290" y="400" width="60" height="60" as="geometry" />
        </mxCell>
        <mxCell id="e0liQvdCcjfhZNM5xDvp-31" value="" style="rounded=0;whiteSpace=wrap;html=1;strokeWidth=2;fontSize=20;fontStyle=1" vertex="1" parent="1">
          <mxGeometry x="350" y="400" width="60" height="60" as="geometry" />
        </mxCell>
        <mxCell id="e0liQvdCcjfhZNM5xDvp-32" value="" style="rounded=0;whiteSpace=wrap;html=1;strokeWidth=2;fontSize=20;fontStyle=1" vertex="1" parent="1">
          <mxGeometry x="410" y="400" width="60" height="60" as="geometry" />
        </mxCell>
        <mxCell id="e0liQvdCcjfhZNM5xDvp-33" value="U3" style="text;html=1;align=center;verticalAlign=middle;resizable=0;points=[];autosize=1;strokeColor=none;fillColor=none;strokeWidth=2;fontSize=20;fontStyle=1" vertex="1" parent="1">
          <mxGeometry x="65" y="410" width="50" height="40" as="geometry" />
        </mxCell>
        <mxCell id="e0liQvdCcjfhZNM5xDvp-34" value="" style="rounded=0;whiteSpace=wrap;html=1;strokeWidth=2;fontSize=20;fontStyle=1" vertex="1" parent="1">
          <mxGeometry x="110" y="480" width="60" height="60" as="geometry" />
        </mxCell>
        <mxCell id="e0liQvdCcjfhZNM5xDvp-35" value="" style="rounded=0;whiteSpace=wrap;html=1;strokeWidth=2;fontSize=20;fontStyle=1" vertex="1" parent="1">
          <mxGeometry x="170" y="480" width="60" height="60" as="geometry" />
        </mxCell>
        <mxCell id="e0liQvdCcjfhZNM5xDvp-36" value="" style="rounded=0;whiteSpace=wrap;html=1;strokeWidth=2;fontSize=20;fontStyle=1" vertex="1" parent="1">
          <mxGeometry x="230" y="480" width="60" height="60" as="geometry" />
        </mxCell>
        <mxCell id="e0liQvdCcjfhZNM5xDvp-37" value="" style="rounded=0;whiteSpace=wrap;html=1;strokeWidth=2;fontSize=20;fontStyle=1" vertex="1" parent="1">
          <mxGeometry x="290" y="480" width="60" height="60" as="geometry" />
        </mxCell>
        <mxCell id="e0liQvdCcjfhZNM5xDvp-38" value="" style="rounded=0;whiteSpace=wrap;html=1;strokeWidth=2;fontSize=20;fontStyle=1" vertex="1" parent="1">
          <mxGeometry x="350" y="480" width="60" height="60" as="geometry" />
        </mxCell>
        <mxCell id="e0liQvdCcjfhZNM5xDvp-39" value="" style="rounded=0;whiteSpace=wrap;html=1;strokeWidth=2;fontSize=20;fontStyle=1" vertex="1" parent="1">
          <mxGeometry x="410" y="480" width="60" height="60" as="geometry" />
        </mxCell>
        <mxCell id="e0liQvdCcjfhZNM5xDvp-40" value="" style="rounded=0;whiteSpace=wrap;html=1;strokeWidth=2;fontSize=20;fontStyle=1" vertex="1" parent="1">
          <mxGeometry x="110" y="560" width="60" height="60" as="geometry" />
        </mxCell>
        <mxCell id="e0liQvdCcjfhZNM5xDvp-41" value="" style="rounded=0;whiteSpace=wrap;html=1;strokeWidth=2;fontSize=20;fontStyle=1" vertex="1" parent="1">
          <mxGeometry x="170" y="560" width="60" height="60" as="geometry" />
        </mxCell>
        <mxCell id="e0liQvdCcjfhZNM5xDvp-42" value="" style="rounded=0;whiteSpace=wrap;html=1;strokeWidth=2;fontSize=20;fontStyle=1" vertex="1" parent="1">
          <mxGeometry x="230" y="560" width="60" height="60" as="geometry" />
        </mxCell>
        <mxCell id="e0liQvdCcjfhZNM5xDvp-43" value="" style="rounded=0;whiteSpace=wrap;html=1;strokeWidth=2;fontSize=20;fontStyle=1" vertex="1" parent="1">
          <mxGeometry x="290" y="560" width="60" height="60" as="geometry" />
        </mxCell>
        <mxCell id="e0liQvdCcjfhZNM5xDvp-44" value="" style="rounded=0;whiteSpace=wrap;html=1;strokeWidth=2;fontSize=20;fontStyle=1" vertex="1" parent="1">
          <mxGeometry x="350" y="560" width="60" height="60" as="geometry" />
        </mxCell>
        <mxCell id="e0liQvdCcjfhZNM5xDvp-45" value="" style="rounded=0;whiteSpace=wrap;html=1;strokeWidth=2;fontSize=20;fontStyle=1" vertex="1" parent="1">
          <mxGeometry x="410" y="560" width="60" height="60" as="geometry" />
        </mxCell>
        <mxCell id="e0liQvdCcjfhZNM5xDvp-46" value=".&lt;br style=&quot;font-size: 20px;&quot;&gt;.&lt;br style=&quot;font-size: 20px;&quot;&gt;.&lt;br style=&quot;font-size: 20px;&quot;&gt;.&lt;br style=&quot;font-size: 20px;&quot;&gt;.&lt;br style=&quot;font-size: 20px;&quot;&gt;.&lt;br style=&quot;font-size: 20px;&quot;&gt;." style="text;html=1;align=center;verticalAlign=middle;resizable=0;points=[];autosize=1;strokeColor=none;fillColor=none;strokeWidth=2;fontSize=20;fontStyle=1" vertex="1" parent="1">
          <mxGeometry x="75" y="465" width="30" height="180" as="geometry" />
        </mxCell>
        <mxCell id="e0liQvdCcjfhZNM5xDvp-47" value="" style="rounded=0;whiteSpace=wrap;html=1;strokeWidth=2;fontSize=20;fontStyle=1" vertex="1" parent="1">
          <mxGeometry x="110" y="640" width="60" height="60" as="geometry" />
        </mxCell>
        <mxCell id="e0liQvdCcjfhZNM5xDvp-48" value="" style="rounded=0;whiteSpace=wrap;html=1;strokeWidth=2;fontSize=20;fontStyle=1" vertex="1" parent="1">
          <mxGeometry x="170" y="640" width="60" height="60" as="geometry" />
        </mxCell>
        <mxCell id="e0liQvdCcjfhZNM5xDvp-49" value="" style="rounded=0;whiteSpace=wrap;html=1;strokeWidth=2;fontSize=20;fontStyle=1" vertex="1" parent="1">
          <mxGeometry x="230" y="640" width="60" height="60" as="geometry" />
        </mxCell>
        <mxCell id="e0liQvdCcjfhZNM5xDvp-50" value="" style="rounded=0;whiteSpace=wrap;html=1;strokeWidth=2;fontSize=20;fontStyle=1" vertex="1" parent="1">
          <mxGeometry x="290" y="640" width="60" height="60" as="geometry" />
        </mxCell>
        <mxCell id="e0liQvdCcjfhZNM5xDvp-51" value="" style="rounded=0;whiteSpace=wrap;html=1;strokeWidth=2;fontSize=20;fontStyle=1" vertex="1" parent="1">
          <mxGeometry x="350" y="640" width="60" height="60" as="geometry" />
        </mxCell>
        <mxCell id="e0liQvdCcjfhZNM5xDvp-52" value="" style="rounded=0;whiteSpace=wrap;html=1;strokeWidth=2;fontSize=20;fontStyle=1" vertex="1" parent="1">
          <mxGeometry x="410" y="640" width="60" height="60" as="geometry" />
        </mxCell>
        <mxCell id="e0liQvdCcjfhZNM5xDvp-53" value="Un" style="text;html=1;align=center;verticalAlign=middle;resizable=0;points=[];autosize=1;strokeColor=none;fillColor=none;strokeWidth=2;fontSize=20;fontStyle=1" vertex="1" parent="1">
          <mxGeometry x="65" y="650" width="50" height="40" as="geometry" />
        </mxCell>
        <mxCell id="e0liQvdCcjfhZNM5xDvp-54" value="&lt;font style=&quot;font-size: 40px;&quot;&gt;Raw Data&lt;/font&gt;" style="text;html=1;align=center;verticalAlign=middle;resizable=0;points=[];autosize=1;strokeColor=none;fillColor=none;strokeWidth=2;" vertex="1" parent="1">
          <mxGeometry x="190" y="120" width="200" height="60" as="geometry" />
        </mxCell>
        <mxCell id="e0liQvdCcjfhZNM5xDvp-55" value="" style="rounded=0;whiteSpace=wrap;html=1;strokeWidth=2;fontSize=20;fontStyle=1" vertex="1" parent="1">
          <mxGeometry x="685" y="240" width="60" height="60" as="geometry" />
        </mxCell>
        <mxCell id="e0liQvdCcjfhZNM5xDvp-56" value="" style="rounded=0;whiteSpace=wrap;html=1;strokeWidth=2;fontSize=20;fontStyle=1" vertex="1" parent="1">
          <mxGeometry x="745" y="240" width="60" height="60" as="geometry" />
        </mxCell>
        <mxCell id="e0liQvdCcjfhZNM5xDvp-57" value="" style="rounded=0;whiteSpace=wrap;html=1;strokeWidth=2;fontSize=20;fontStyle=1" vertex="1" parent="1">
          <mxGeometry x="805" y="240" width="60" height="60" as="geometry" />
        </mxCell>
        <mxCell id="e0liQvdCcjfhZNM5xDvp-58" value="" style="rounded=0;whiteSpace=wrap;html=1;strokeWidth=2;fontSize=20;fontStyle=1" vertex="1" parent="1">
          <mxGeometry x="865" y="240" width="60" height="60" as="geometry" />
        </mxCell>
        <mxCell id="e0liQvdCcjfhZNM5xDvp-59" value="" style="rounded=0;whiteSpace=wrap;html=1;strokeWidth=2;fontSize=20;fontStyle=1" vertex="1" parent="1">
          <mxGeometry x="925" y="240" width="60" height="60" as="geometry" />
        </mxCell>
        <mxCell id="e0liQvdCcjfhZNM5xDvp-60" value="" style="rounded=0;whiteSpace=wrap;html=1;strokeWidth=2;fontSize=20;fontStyle=1" vertex="1" parent="1">
          <mxGeometry x="985" y="240" width="60" height="60" as="geometry" />
        </mxCell>
        <mxCell id="e0liQvdCcjfhZNM5xDvp-61" value="A1" style="text;html=1;align=center;verticalAlign=middle;resizable=0;points=[];autosize=1;strokeColor=none;fillColor=none;strokeWidth=2;fontSize=20;fontStyle=1" vertex="1" parent="1">
          <mxGeometry x="690" y="205" width="50" height="40" as="geometry" />
        </mxCell>
        <mxCell id="e0liQvdCcjfhZNM5xDvp-62" value="A2" style="text;html=1;align=center;verticalAlign=middle;resizable=0;points=[];autosize=1;strokeColor=none;fillColor=none;strokeWidth=2;fontSize=20;fontStyle=1" vertex="1" parent="1">
          <mxGeometry x="750" y="205" width="50" height="40" as="geometry" />
        </mxCell>
        <mxCell id="e0liQvdCcjfhZNM5xDvp-63" value="A3" style="text;html=1;align=center;verticalAlign=middle;resizable=0;points=[];autosize=1;strokeColor=none;fillColor=none;strokeWidth=2;fontSize=20;fontStyle=1" vertex="1" parent="1">
          <mxGeometry x="810" y="205" width="50" height="40" as="geometry" />
        </mxCell>
        <mxCell id="e0liQvdCcjfhZNM5xDvp-64" value="A4" style="text;html=1;align=center;verticalAlign=middle;resizable=0;points=[];autosize=1;strokeColor=none;fillColor=none;strokeWidth=2;fontSize=20;fontStyle=1" vertex="1" parent="1">
          <mxGeometry x="870" y="205" width="50" height="40" as="geometry" />
        </mxCell>
        <mxCell id="e0liQvdCcjfhZNM5xDvp-65" value="An" style="text;html=1;align=center;verticalAlign=middle;resizable=0;points=[];autosize=1;strokeColor=none;fillColor=none;strokeWidth=2;fontSize=20;fontStyle=1" vertex="1" parent="1">
          <mxGeometry x="990" y="205" width="50" height="40" as="geometry" />
        </mxCell>
        <mxCell id="e0liQvdCcjfhZNM5xDvp-66" value="..." style="text;html=1;align=center;verticalAlign=middle;resizable=0;points=[];autosize=1;strokeColor=none;fillColor=none;strokeWidth=2;fontSize=20;fontStyle=1" vertex="1" parent="1">
          <mxGeometry x="935" y="205" width="40" height="40" as="geometry" />
        </mxCell>
        <mxCell id="e0liQvdCcjfhZNM5xDvp-67" value="" style="rounded=0;whiteSpace=wrap;html=1;strokeWidth=2;fontSize=20;fontStyle=1" vertex="1" parent="1">
          <mxGeometry x="685" y="320" width="60" height="60" as="geometry" />
        </mxCell>
        <mxCell id="e0liQvdCcjfhZNM5xDvp-68" value="" style="rounded=0;whiteSpace=wrap;html=1;strokeWidth=2;fontSize=20;fontStyle=1" vertex="1" parent="1">
          <mxGeometry x="745" y="320" width="60" height="60" as="geometry" />
        </mxCell>
        <mxCell id="e0liQvdCcjfhZNM5xDvp-69" value="" style="rounded=0;whiteSpace=wrap;html=1;strokeWidth=2;fontSize=20;fontStyle=1" vertex="1" parent="1">
          <mxGeometry x="805" y="320" width="60" height="60" as="geometry" />
        </mxCell>
        <mxCell id="e0liQvdCcjfhZNM5xDvp-70" value="" style="rounded=0;whiteSpace=wrap;html=1;strokeWidth=2;fontSize=20;fontStyle=1" vertex="1" parent="1">
          <mxGeometry x="865" y="320" width="60" height="60" as="geometry" />
        </mxCell>
        <mxCell id="e0liQvdCcjfhZNM5xDvp-71" value="" style="rounded=0;whiteSpace=wrap;html=1;strokeWidth=2;fontSize=20;fontStyle=1" vertex="1" parent="1">
          <mxGeometry x="925" y="320" width="60" height="60" as="geometry" />
        </mxCell>
        <mxCell id="e0liQvdCcjfhZNM5xDvp-72" value="" style="rounded=0;whiteSpace=wrap;html=1;strokeWidth=2;fontSize=20;fontStyle=1" vertex="1" parent="1">
          <mxGeometry x="985" y="320" width="60" height="60" as="geometry" />
        </mxCell>
        <mxCell id="e0liQvdCcjfhZNM5xDvp-73" value="U1" style="text;html=1;align=center;verticalAlign=middle;resizable=0;points=[];autosize=1;strokeColor=none;fillColor=none;strokeWidth=2;fontSize=20;fontStyle=1" vertex="1" parent="1">
          <mxGeometry x="640" y="250" width="50" height="40" as="geometry" />
        </mxCell>
        <mxCell id="e0liQvdCcjfhZNM5xDvp-74" value="U2" style="text;html=1;align=center;verticalAlign=middle;resizable=0;points=[];autosize=1;strokeColor=none;fillColor=none;strokeWidth=2;fontSize=20;fontStyle=1" vertex="1" parent="1">
          <mxGeometry x="640" y="330" width="50" height="40" as="geometry" />
        </mxCell>
        <mxCell id="e0liQvdCcjfhZNM5xDvp-75" value="" style="rounded=0;whiteSpace=wrap;html=1;strokeWidth=2;fontSize=20;fontStyle=1" vertex="1" parent="1">
          <mxGeometry x="685" y="400" width="60" height="60" as="geometry" />
        </mxCell>
        <mxCell id="e0liQvdCcjfhZNM5xDvp-76" value="" style="rounded=0;whiteSpace=wrap;html=1;strokeWidth=2;fontSize=20;fontStyle=1" vertex="1" parent="1">
          <mxGeometry x="745" y="400" width="60" height="60" as="geometry" />
        </mxCell>
        <mxCell id="e0liQvdCcjfhZNM5xDvp-77" value="" style="rounded=0;whiteSpace=wrap;html=1;strokeWidth=2;fontSize=20;fontStyle=1" vertex="1" parent="1">
          <mxGeometry x="805" y="400" width="60" height="60" as="geometry" />
        </mxCell>
        <mxCell id="e0liQvdCcjfhZNM5xDvp-78" value="" style="rounded=0;whiteSpace=wrap;html=1;strokeWidth=2;fontSize=20;fontStyle=1" vertex="1" parent="1">
          <mxGeometry x="865" y="400" width="60" height="60" as="geometry" />
        </mxCell>
        <mxCell id="e0liQvdCcjfhZNM5xDvp-79" value="" style="rounded=0;whiteSpace=wrap;html=1;strokeWidth=2;fontSize=20;fontStyle=1" vertex="1" parent="1">
          <mxGeometry x="925" y="400" width="60" height="60" as="geometry" />
        </mxCell>
        <mxCell id="e0liQvdCcjfhZNM5xDvp-80" value="" style="rounded=0;whiteSpace=wrap;html=1;strokeWidth=2;fontSize=20;fontStyle=1" vertex="1" parent="1">
          <mxGeometry x="985" y="400" width="60" height="60" as="geometry" />
        </mxCell>
        <mxCell id="e0liQvdCcjfhZNM5xDvp-81" value="U3" style="text;html=1;align=center;verticalAlign=middle;resizable=0;points=[];autosize=1;strokeColor=none;fillColor=none;strokeWidth=2;fontSize=20;fontStyle=1" vertex="1" parent="1">
          <mxGeometry x="640" y="410" width="50" height="40" as="geometry" />
        </mxCell>
        <mxCell id="e0liQvdCcjfhZNM5xDvp-82" value="" style="rounded=0;whiteSpace=wrap;html=1;strokeWidth=2;fontSize=20;fontStyle=1" vertex="1" parent="1">
          <mxGeometry x="685" y="480" width="60" height="60" as="geometry" />
        </mxCell>
        <mxCell id="e0liQvdCcjfhZNM5xDvp-83" value="" style="rounded=0;whiteSpace=wrap;html=1;strokeWidth=2;fontSize=20;fontStyle=1" vertex="1" parent="1">
          <mxGeometry x="745" y="480" width="60" height="60" as="geometry" />
        </mxCell>
        <mxCell id="e0liQvdCcjfhZNM5xDvp-84" value="" style="rounded=0;whiteSpace=wrap;html=1;strokeWidth=2;fontSize=20;fontStyle=1" vertex="1" parent="1">
          <mxGeometry x="805" y="480" width="60" height="60" as="geometry" />
        </mxCell>
        <mxCell id="e0liQvdCcjfhZNM5xDvp-85" value="" style="rounded=0;whiteSpace=wrap;html=1;strokeWidth=2;fontSize=20;fontStyle=1" vertex="1" parent="1">
          <mxGeometry x="865" y="480" width="60" height="60" as="geometry" />
        </mxCell>
        <mxCell id="e0liQvdCcjfhZNM5xDvp-86" value="" style="rounded=0;whiteSpace=wrap;html=1;strokeWidth=2;fontSize=20;fontStyle=1" vertex="1" parent="1">
          <mxGeometry x="925" y="480" width="60" height="60" as="geometry" />
        </mxCell>
        <mxCell id="e0liQvdCcjfhZNM5xDvp-87" value="" style="rounded=0;whiteSpace=wrap;html=1;strokeWidth=2;fontSize=20;fontStyle=1" vertex="1" parent="1">
          <mxGeometry x="985" y="480" width="60" height="60" as="geometry" />
        </mxCell>
        <mxCell id="e0liQvdCcjfhZNM5xDvp-88" value="" style="rounded=0;whiteSpace=wrap;html=1;strokeWidth=2;fontSize=20;fontStyle=1" vertex="1" parent="1">
          <mxGeometry x="685" y="560" width="60" height="60" as="geometry" />
        </mxCell>
        <mxCell id="e0liQvdCcjfhZNM5xDvp-89" value="" style="rounded=0;whiteSpace=wrap;html=1;strokeWidth=2;fontSize=20;fontStyle=1" vertex="1" parent="1">
          <mxGeometry x="745" y="560" width="60" height="60" as="geometry" />
        </mxCell>
        <mxCell id="e0liQvdCcjfhZNM5xDvp-90" value="" style="rounded=0;whiteSpace=wrap;html=1;strokeWidth=2;fontSize=20;fontStyle=1" vertex="1" parent="1">
          <mxGeometry x="805" y="560" width="60" height="60" as="geometry" />
        </mxCell>
        <mxCell id="e0liQvdCcjfhZNM5xDvp-91" value="" style="rounded=0;whiteSpace=wrap;html=1;strokeWidth=2;fontSize=20;fontStyle=1" vertex="1" parent="1">
          <mxGeometry x="865" y="560" width="60" height="60" as="geometry" />
        </mxCell>
        <mxCell id="e0liQvdCcjfhZNM5xDvp-92" value="" style="rounded=0;whiteSpace=wrap;html=1;strokeWidth=2;fontSize=20;fontStyle=1" vertex="1" parent="1">
          <mxGeometry x="925" y="560" width="60" height="60" as="geometry" />
        </mxCell>
        <mxCell id="e0liQvdCcjfhZNM5xDvp-93" value="" style="rounded=0;whiteSpace=wrap;html=1;strokeWidth=2;fontSize=20;fontStyle=1" vertex="1" parent="1">
          <mxGeometry x="985" y="560" width="60" height="60" as="geometry" />
        </mxCell>
        <mxCell id="e0liQvdCcjfhZNM5xDvp-94" value=".&lt;br style=&quot;font-size: 20px;&quot;&gt;.&lt;br style=&quot;font-size: 20px;&quot;&gt;.&lt;br style=&quot;font-size: 20px;&quot;&gt;.&lt;br style=&quot;font-size: 20px;&quot;&gt;.&lt;br style=&quot;font-size: 20px;&quot;&gt;.&lt;br style=&quot;font-size: 20px;&quot;&gt;." style="text;html=1;align=center;verticalAlign=middle;resizable=0;points=[];autosize=1;strokeColor=none;fillColor=none;strokeWidth=2;fontSize=20;fontStyle=1" vertex="1" parent="1">
          <mxGeometry x="650" y="465" width="30" height="180" as="geometry" />
        </mxCell>
        <mxCell id="e0liQvdCcjfhZNM5xDvp-95" value="" style="rounded=0;whiteSpace=wrap;html=1;strokeWidth=2;fontSize=20;fontStyle=1" vertex="1" parent="1">
          <mxGeometry x="685" y="640" width="60" height="60" as="geometry" />
        </mxCell>
        <mxCell id="e0liQvdCcjfhZNM5xDvp-96" value="" style="rounded=0;whiteSpace=wrap;html=1;strokeWidth=2;fontSize=20;fontStyle=1" vertex="1" parent="1">
          <mxGeometry x="745" y="640" width="60" height="60" as="geometry" />
        </mxCell>
        <mxCell id="e0liQvdCcjfhZNM5xDvp-97" value="" style="rounded=0;whiteSpace=wrap;html=1;strokeWidth=2;fontSize=20;fontStyle=1" vertex="1" parent="1">
          <mxGeometry x="805" y="640" width="60" height="60" as="geometry" />
        </mxCell>
        <mxCell id="e0liQvdCcjfhZNM5xDvp-98" value="" style="rounded=0;whiteSpace=wrap;html=1;strokeWidth=2;fontSize=20;fontStyle=1" vertex="1" parent="1">
          <mxGeometry x="865" y="640" width="60" height="60" as="geometry" />
        </mxCell>
        <mxCell id="e0liQvdCcjfhZNM5xDvp-99" value="" style="rounded=0;whiteSpace=wrap;html=1;strokeWidth=2;fontSize=20;fontStyle=1" vertex="1" parent="1">
          <mxGeometry x="925" y="640" width="60" height="60" as="geometry" />
        </mxCell>
        <mxCell id="e0liQvdCcjfhZNM5xDvp-100" value="" style="rounded=0;whiteSpace=wrap;html=1;strokeWidth=2;fontSize=20;fontStyle=1" vertex="1" parent="1">
          <mxGeometry x="985" y="640" width="60" height="60" as="geometry" />
        </mxCell>
        <mxCell id="e0liQvdCcjfhZNM5xDvp-101" value="Un" style="text;html=1;align=center;verticalAlign=middle;resizable=0;points=[];autosize=1;strokeColor=none;fillColor=none;strokeWidth=2;fontSize=20;fontStyle=1" vertex="1" parent="1">
          <mxGeometry x="640" y="650" width="50" height="40" as="geometry" />
        </mxCell>
        <mxCell id="e0liQvdCcjfhZNM5xDvp-102" value="&lt;font style=&quot;font-size: 40px;&quot;&gt;Local Differentially&lt;br&gt;Private Data&lt;br&gt;&lt;/font&gt;" style="text;html=1;align=center;verticalAlign=middle;resizable=0;points=[];autosize=1;strokeColor=none;fillColor=none;strokeWidth=2;" vertex="1" parent="1">
          <mxGeometry x="685" y="95" width="350" height="110" as="geometry" />
        </mxCell>
        <mxCell id="e0liQvdCcjfhZNM5xDvp-103" value="" style="shape=flexArrow;endArrow=classic;html=1;rounded=0;fillColor=#000000;strokeWidth=2;fontSize=20;fontStyle=1" edge="1" parent="1">
          <mxGeometry width="50" height="50" relative="1" as="geometry">
            <mxPoint x="510" y="444" as="sourcePoint" />
            <mxPoint x="630" y="444" as="targetPoint" />
          </mxGeometry>
        </mxCell>
        <mxCell id="e0liQvdCcjfhZNM5xDvp-104" value="&lt;font style=&quot;font-size: 20px;&quot;&gt;Noise Adding&lt;br&gt;Mechanism&lt;/font&gt;" style="text;html=1;align=center;verticalAlign=middle;resizable=0;points=[];autosize=1;strokeColor=none;fillColor=none;strokeWidth=2;" vertex="1" parent="1">
          <mxGeometry x="500" y="359" width="140" height="60" as="geometry" />
        </mxCell>
        <mxCell id="e0liQvdCcjfhZNM5xDvp-107" value="" style="shape=flexArrow;endArrow=classic;html=1;rounded=0;fillColor=#000000;strokeWidth=2;fontSize=20;fontStyle=1" edge="1" parent="1">
          <mxGeometry width="50" height="50" relative="1" as="geometry">
            <mxPoint x="1646" y="444" as="sourcePoint" />
            <mxPoint x="1766" y="444" as="targetPoint" />
          </mxGeometry>
        </mxCell>
        <mxCell id="e0liQvdCcjfhZNM5xDvp-108" value="&lt;span style=&quot;font-size: 20px;&quot;&gt;5-Fold Cross-&lt;br&gt;Validation&lt;br&gt;&lt;/span&gt;" style="text;html=1;align=center;verticalAlign=middle;resizable=0;points=[];autosize=1;strokeColor=none;fillColor=none;strokeWidth=2;" vertex="1" parent="1">
          <mxGeometry x="1636" y="359" width="140" height="60" as="geometry" />
        </mxCell>
        <mxCell id="e0liQvdCcjfhZNM5xDvp-109" value="" style="rounded=0;whiteSpace=wrap;html=1;strokeWidth=2;fontSize=20;fontStyle=1" vertex="1" parent="1">
          <mxGeometry x="1811" y="155" width="60" height="60" as="geometry" />
        </mxCell>
        <mxCell id="e0liQvdCcjfhZNM5xDvp-110" value="" style="rounded=0;whiteSpace=wrap;html=1;strokeWidth=2;fontSize=20;fontStyle=1" vertex="1" parent="1">
          <mxGeometry x="1871" y="155" width="60" height="60" as="geometry" />
        </mxCell>
        <mxCell id="e0liQvdCcjfhZNM5xDvp-111" value="" style="rounded=0;whiteSpace=wrap;html=1;strokeWidth=2;fontSize=20;fontStyle=1" vertex="1" parent="1">
          <mxGeometry x="1931" y="155" width="60" height="60" as="geometry" />
        </mxCell>
        <mxCell id="e0liQvdCcjfhZNM5xDvp-112" value="" style="rounded=0;whiteSpace=wrap;html=1;strokeWidth=2;fontSize=20;fontStyle=1" vertex="1" parent="1">
          <mxGeometry x="1991" y="155" width="60" height="60" as="geometry" />
        </mxCell>
        <mxCell id="e0liQvdCcjfhZNM5xDvp-113" value="" style="rounded=0;whiteSpace=wrap;html=1;strokeWidth=2;fontSize=20;fontStyle=1" vertex="1" parent="1">
          <mxGeometry x="2051" y="155" width="60" height="60" as="geometry" />
        </mxCell>
        <mxCell id="e0liQvdCcjfhZNM5xDvp-114" value="" style="rounded=0;whiteSpace=wrap;html=1;strokeWidth=2;fontSize=20;fontStyle=1" vertex="1" parent="1">
          <mxGeometry x="2111" y="155" width="60" height="60" as="geometry" />
        </mxCell>
        <mxCell id="e0liQvdCcjfhZNM5xDvp-115" value="A1" style="text;html=1;align=center;verticalAlign=middle;resizable=0;points=[];autosize=1;strokeColor=none;fillColor=none;strokeWidth=2;fontSize=20;fontStyle=1" vertex="1" parent="1">
          <mxGeometry x="1816" y="120" width="50" height="40" as="geometry" />
        </mxCell>
        <mxCell id="e0liQvdCcjfhZNM5xDvp-116" value="A2" style="text;html=1;align=center;verticalAlign=middle;resizable=0;points=[];autosize=1;strokeColor=none;fillColor=none;strokeWidth=2;fontSize=20;fontStyle=1" vertex="1" parent="1">
          <mxGeometry x="1876" y="120" width="50" height="40" as="geometry" />
        </mxCell>
        <mxCell id="e0liQvdCcjfhZNM5xDvp-117" value="A3" style="text;html=1;align=center;verticalAlign=middle;resizable=0;points=[];autosize=1;strokeColor=none;fillColor=none;strokeWidth=2;fontSize=20;fontStyle=1" vertex="1" parent="1">
          <mxGeometry x="1936" y="120" width="50" height="40" as="geometry" />
        </mxCell>
        <mxCell id="e0liQvdCcjfhZNM5xDvp-118" value="A4" style="text;html=1;align=center;verticalAlign=middle;resizable=0;points=[];autosize=1;strokeColor=none;fillColor=none;strokeWidth=2;fontSize=20;fontStyle=1" vertex="1" parent="1">
          <mxGeometry x="1996" y="120" width="50" height="40" as="geometry" />
        </mxCell>
        <mxCell id="e0liQvdCcjfhZNM5xDvp-119" value="An" style="text;html=1;align=center;verticalAlign=middle;resizable=0;points=[];autosize=1;strokeColor=none;fillColor=none;strokeWidth=2;fontSize=20;fontStyle=1" vertex="1" parent="1">
          <mxGeometry x="2116" y="120" width="50" height="40" as="geometry" />
        </mxCell>
        <mxCell id="e0liQvdCcjfhZNM5xDvp-120" value="..." style="text;html=1;align=center;verticalAlign=middle;resizable=0;points=[];autosize=1;strokeColor=none;fillColor=none;strokeWidth=2;fontSize=20;fontStyle=1" vertex="1" parent="1">
          <mxGeometry x="2061" y="120" width="40" height="40" as="geometry" />
        </mxCell>
        <mxCell id="e0liQvdCcjfhZNM5xDvp-121" value="" style="rounded=0;whiteSpace=wrap;html=1;strokeWidth=2;fontSize=20;fontStyle=1" vertex="1" parent="1">
          <mxGeometry x="1811" y="215" width="60" height="60" as="geometry" />
        </mxCell>
        <mxCell id="e0liQvdCcjfhZNM5xDvp-122" value="" style="rounded=0;whiteSpace=wrap;html=1;strokeWidth=2;fontSize=20;fontStyle=1" vertex="1" parent="1">
          <mxGeometry x="1871" y="215" width="60" height="60" as="geometry" />
        </mxCell>
        <mxCell id="e0liQvdCcjfhZNM5xDvp-123" value="" style="rounded=0;whiteSpace=wrap;html=1;strokeWidth=2;fontSize=20;fontStyle=1" vertex="1" parent="1">
          <mxGeometry x="1931" y="215" width="60" height="60" as="geometry" />
        </mxCell>
        <mxCell id="e0liQvdCcjfhZNM5xDvp-124" value="" style="rounded=0;whiteSpace=wrap;html=1;strokeWidth=2;fontSize=20;fontStyle=1" vertex="1" parent="1">
          <mxGeometry x="1991" y="215" width="60" height="60" as="geometry" />
        </mxCell>
        <mxCell id="e0liQvdCcjfhZNM5xDvp-125" value="" style="rounded=0;whiteSpace=wrap;html=1;strokeWidth=2;fontSize=20;fontStyle=1" vertex="1" parent="1">
          <mxGeometry x="2051" y="215" width="60" height="60" as="geometry" />
        </mxCell>
        <mxCell id="e0liQvdCcjfhZNM5xDvp-126" value="" style="rounded=0;whiteSpace=wrap;html=1;strokeWidth=2;fontSize=20;fontStyle=1" vertex="1" parent="1">
          <mxGeometry x="2111" y="215" width="60" height="60" as="geometry" />
        </mxCell>
        <mxCell id="e0liQvdCcjfhZNM5xDvp-127" value="U1" style="text;html=1;align=center;verticalAlign=middle;resizable=0;points=[];autosize=1;strokeColor=none;fillColor=none;strokeWidth=2;fontSize=20;fontStyle=1" vertex="1" parent="1">
          <mxGeometry x="1766" y="165" width="50" height="40" as="geometry" />
        </mxCell>
        <mxCell id="e0liQvdCcjfhZNM5xDvp-128" value=".&lt;br style=&quot;font-size: 20px;&quot;&gt;.&lt;br style=&quot;font-size: 20px;&quot;&gt;." style="text;html=1;align=center;verticalAlign=middle;resizable=0;points=[];autosize=1;strokeColor=none;fillColor=none;strokeWidth=2;fontSize=20;fontStyle=1" vertex="1" parent="1">
          <mxGeometry x="1776" y="200" width="30" height="90" as="geometry" />
        </mxCell>
        <mxCell id="e0liQvdCcjfhZNM5xDvp-129" value="" style="rounded=0;whiteSpace=wrap;html=1;strokeWidth=2;fontSize=20;fontStyle=1" vertex="1" parent="1">
          <mxGeometry x="1811" y="305" width="60" height="60" as="geometry" />
        </mxCell>
        <mxCell id="e0liQvdCcjfhZNM5xDvp-130" value="" style="rounded=0;whiteSpace=wrap;html=1;strokeWidth=2;fontSize=20;fontStyle=1" vertex="1" parent="1">
          <mxGeometry x="1871" y="305" width="60" height="60" as="geometry" />
        </mxCell>
        <mxCell id="e0liQvdCcjfhZNM5xDvp-131" value="" style="rounded=0;whiteSpace=wrap;html=1;strokeWidth=2;fontSize=20;fontStyle=1" vertex="1" parent="1">
          <mxGeometry x="1931" y="305" width="60" height="60" as="geometry" />
        </mxCell>
        <mxCell id="e0liQvdCcjfhZNM5xDvp-132" value="" style="rounded=0;whiteSpace=wrap;html=1;strokeWidth=2;fontSize=20;fontStyle=1" vertex="1" parent="1">
          <mxGeometry x="1991" y="305" width="60" height="60" as="geometry" />
        </mxCell>
        <mxCell id="e0liQvdCcjfhZNM5xDvp-133" value="" style="rounded=0;whiteSpace=wrap;html=1;strokeWidth=2;fontSize=20;fontStyle=1" vertex="1" parent="1">
          <mxGeometry x="2051" y="305" width="60" height="60" as="geometry" />
        </mxCell>
        <mxCell id="e0liQvdCcjfhZNM5xDvp-134" value="" style="rounded=0;whiteSpace=wrap;html=1;strokeWidth=2;fontSize=20;fontStyle=1" vertex="1" parent="1">
          <mxGeometry x="2111" y="305" width="60" height="60" as="geometry" />
        </mxCell>
        <mxCell id="e0liQvdCcjfhZNM5xDvp-135" value="X1" style="text;html=1;align=center;verticalAlign=middle;resizable=0;points=[];autosize=1;strokeColor=none;fillColor=none;strokeWidth=2;fontSize=20;fontStyle=1" vertex="1" parent="1">
          <mxGeometry x="1766" y="315" width="50" height="40" as="geometry" />
        </mxCell>
        <mxCell id="e0liQvdCcjfhZNM5xDvp-136" value="" style="rounded=0;whiteSpace=wrap;html=1;strokeWidth=2;fontSize=20;fontStyle=1" vertex="1" parent="1">
          <mxGeometry x="1811" y="365" width="60" height="60" as="geometry" />
        </mxCell>
        <mxCell id="e0liQvdCcjfhZNM5xDvp-137" value="" style="rounded=0;whiteSpace=wrap;html=1;strokeWidth=2;fontSize=20;fontStyle=1" vertex="1" parent="1">
          <mxGeometry x="1871" y="365" width="60" height="60" as="geometry" />
        </mxCell>
        <mxCell id="e0liQvdCcjfhZNM5xDvp-138" value="" style="rounded=0;whiteSpace=wrap;html=1;strokeWidth=2;fontSize=20;fontStyle=1" vertex="1" parent="1">
          <mxGeometry x="1931" y="365" width="60" height="60" as="geometry" />
        </mxCell>
        <mxCell id="e0liQvdCcjfhZNM5xDvp-139" value="" style="rounded=0;whiteSpace=wrap;html=1;strokeWidth=2;fontSize=20;fontStyle=1" vertex="1" parent="1">
          <mxGeometry x="1991" y="365" width="60" height="60" as="geometry" />
        </mxCell>
        <mxCell id="e0liQvdCcjfhZNM5xDvp-140" value="" style="rounded=0;whiteSpace=wrap;html=1;strokeWidth=2;fontSize=20;fontStyle=1" vertex="1" parent="1">
          <mxGeometry x="2051" y="365" width="60" height="60" as="geometry" />
        </mxCell>
        <mxCell id="e0liQvdCcjfhZNM5xDvp-141" value="" style="rounded=0;whiteSpace=wrap;html=1;strokeWidth=2;fontSize=20;fontStyle=1" vertex="1" parent="1">
          <mxGeometry x="2111" y="365" width="60" height="60" as="geometry" />
        </mxCell>
        <mxCell id="e0liQvdCcjfhZNM5xDvp-156" value="&lt;font style=&quot;font-size: 40px;&quot;&gt;Partitioned Dataset&lt;br&gt;For Training\Testing&lt;br&gt;&lt;/font&gt;" style="text;html=1;align=center;verticalAlign=middle;resizable=0;points=[];autosize=1;strokeColor=none;fillColor=none;strokeWidth=2;" vertex="1" parent="1">
          <mxGeometry x="1801" y="10" width="370" height="110" as="geometry" />
        </mxCell>
        <mxCell id="e0liQvdCcjfhZNM5xDvp-157" value=".&lt;br style=&quot;font-size: 20px;&quot;&gt;.&lt;br style=&quot;font-size: 20px;&quot;&gt;." style="text;html=1;align=center;verticalAlign=middle;resizable=0;points=[];autosize=1;strokeColor=none;fillColor=none;strokeWidth=2;fontSize=20;fontStyle=1" vertex="1" parent="1">
          <mxGeometry x="1776" y="350" width="30" height="90" as="geometry" />
        </mxCell>
        <mxCell id="e0liQvdCcjfhZNM5xDvp-158" value="" style="rounded=0;whiteSpace=wrap;html=1;strokeWidth=2;fontSize=20;fontStyle=1" vertex="1" parent="1">
          <mxGeometry x="1811" y="450" width="60" height="60" as="geometry" />
        </mxCell>
        <mxCell id="e0liQvdCcjfhZNM5xDvp-159" value="" style="rounded=0;whiteSpace=wrap;html=1;strokeWidth=2;fontSize=20;fontStyle=1" vertex="1" parent="1">
          <mxGeometry x="1871" y="450" width="60" height="60" as="geometry" />
        </mxCell>
        <mxCell id="e0liQvdCcjfhZNM5xDvp-160" value="" style="rounded=0;whiteSpace=wrap;html=1;strokeWidth=2;fontSize=20;fontStyle=1" vertex="1" parent="1">
          <mxGeometry x="1931" y="450" width="60" height="60" as="geometry" />
        </mxCell>
        <mxCell id="e0liQvdCcjfhZNM5xDvp-161" value="" style="rounded=0;whiteSpace=wrap;html=1;strokeWidth=2;fontSize=20;fontStyle=1" vertex="1" parent="1">
          <mxGeometry x="1991" y="450" width="60" height="60" as="geometry" />
        </mxCell>
        <mxCell id="e0liQvdCcjfhZNM5xDvp-162" value="" style="rounded=0;whiteSpace=wrap;html=1;strokeWidth=2;fontSize=20;fontStyle=1" vertex="1" parent="1">
          <mxGeometry x="2051" y="450" width="60" height="60" as="geometry" />
        </mxCell>
        <mxCell id="e0liQvdCcjfhZNM5xDvp-163" value="" style="rounded=0;whiteSpace=wrap;html=1;strokeWidth=2;fontSize=20;fontStyle=1" vertex="1" parent="1">
          <mxGeometry x="2111" y="450" width="60" height="60" as="geometry" />
        </mxCell>
        <mxCell id="e0liQvdCcjfhZNM5xDvp-164" value="Y1" style="text;html=1;align=center;verticalAlign=middle;resizable=0;points=[];autosize=1;strokeColor=none;fillColor=none;strokeWidth=2;fontSize=20;fontStyle=1" vertex="1" parent="1">
          <mxGeometry x="1766" y="460" width="50" height="40" as="geometry" />
        </mxCell>
        <mxCell id="e0liQvdCcjfhZNM5xDvp-165" value="" style="rounded=0;whiteSpace=wrap;html=1;strokeWidth=2;fontSize=20;fontStyle=1" vertex="1" parent="1">
          <mxGeometry x="1811" y="510" width="60" height="60" as="geometry" />
        </mxCell>
        <mxCell id="e0liQvdCcjfhZNM5xDvp-166" value="" style="rounded=0;whiteSpace=wrap;html=1;strokeWidth=2;fontSize=20;fontStyle=1" vertex="1" parent="1">
          <mxGeometry x="1871" y="510" width="60" height="60" as="geometry" />
        </mxCell>
        <mxCell id="e0liQvdCcjfhZNM5xDvp-167" value="" style="rounded=0;whiteSpace=wrap;html=1;strokeWidth=2;fontSize=20;fontStyle=1" vertex="1" parent="1">
          <mxGeometry x="1931" y="510" width="60" height="60" as="geometry" />
        </mxCell>
        <mxCell id="e0liQvdCcjfhZNM5xDvp-168" value="" style="rounded=0;whiteSpace=wrap;html=1;strokeWidth=2;fontSize=20;fontStyle=1" vertex="1" parent="1">
          <mxGeometry x="1991" y="510" width="60" height="60" as="geometry" />
        </mxCell>
        <mxCell id="e0liQvdCcjfhZNM5xDvp-169" value="" style="rounded=0;whiteSpace=wrap;html=1;strokeWidth=2;fontSize=20;fontStyle=1" vertex="1" parent="1">
          <mxGeometry x="2051" y="510" width="60" height="60" as="geometry" />
        </mxCell>
        <mxCell id="e0liQvdCcjfhZNM5xDvp-170" value="" style="rounded=0;whiteSpace=wrap;html=1;strokeWidth=2;fontSize=20;fontStyle=1" vertex="1" parent="1">
          <mxGeometry x="2111" y="510" width="60" height="60" as="geometry" />
        </mxCell>
        <mxCell id="e0liQvdCcjfhZNM5xDvp-171" value=".&lt;br style=&quot;font-size: 20px;&quot;&gt;.&lt;br style=&quot;font-size: 20px;&quot;&gt;." style="text;html=1;align=center;verticalAlign=middle;resizable=0;points=[];autosize=1;strokeColor=none;fillColor=none;strokeWidth=2;fontSize=20;fontStyle=1" vertex="1" parent="1">
          <mxGeometry x="1776" y="495" width="30" height="90" as="geometry" />
        </mxCell>
        <mxCell id="e0liQvdCcjfhZNM5xDvp-172" value="" style="rounded=0;whiteSpace=wrap;html=1;strokeWidth=2;fontSize=20;fontStyle=1" vertex="1" parent="1">
          <mxGeometry x="1811" y="590" width="60" height="60" as="geometry" />
        </mxCell>
        <mxCell id="e0liQvdCcjfhZNM5xDvp-173" value="" style="rounded=0;whiteSpace=wrap;html=1;strokeWidth=2;fontSize=20;fontStyle=1" vertex="1" parent="1">
          <mxGeometry x="1871" y="590" width="60" height="60" as="geometry" />
        </mxCell>
        <mxCell id="e0liQvdCcjfhZNM5xDvp-174" value="" style="rounded=0;whiteSpace=wrap;html=1;strokeWidth=2;fontSize=20;fontStyle=1" vertex="1" parent="1">
          <mxGeometry x="1931" y="590" width="60" height="60" as="geometry" />
        </mxCell>
        <mxCell id="e0liQvdCcjfhZNM5xDvp-175" value="" style="rounded=0;whiteSpace=wrap;html=1;strokeWidth=2;fontSize=20;fontStyle=1" vertex="1" parent="1">
          <mxGeometry x="1991" y="590" width="60" height="60" as="geometry" />
        </mxCell>
        <mxCell id="e0liQvdCcjfhZNM5xDvp-176" value="" style="rounded=0;whiteSpace=wrap;html=1;strokeWidth=2;fontSize=20;fontStyle=1" vertex="1" parent="1">
          <mxGeometry x="2051" y="590" width="60" height="60" as="geometry" />
        </mxCell>
        <mxCell id="e0liQvdCcjfhZNM5xDvp-177" value="" style="rounded=0;whiteSpace=wrap;html=1;strokeWidth=2;fontSize=20;fontStyle=1" vertex="1" parent="1">
          <mxGeometry x="2111" y="590" width="60" height="60" as="geometry" />
        </mxCell>
        <mxCell id="e0liQvdCcjfhZNM5xDvp-178" value="W1" style="text;html=1;align=center;verticalAlign=middle;resizable=0;points=[];autosize=1;strokeColor=none;fillColor=none;strokeWidth=2;fontSize=20;fontStyle=1" vertex="1" parent="1">
          <mxGeometry x="1766" y="600" width="50" height="40" as="geometry" />
        </mxCell>
        <mxCell id="e0liQvdCcjfhZNM5xDvp-179" value="" style="rounded=0;whiteSpace=wrap;html=1;strokeWidth=2;fontSize=20;fontStyle=1" vertex="1" parent="1">
          <mxGeometry x="1811" y="650" width="60" height="60" as="geometry" />
        </mxCell>
        <mxCell id="e0liQvdCcjfhZNM5xDvp-180" value="" style="rounded=0;whiteSpace=wrap;html=1;strokeWidth=2;fontSize=20;fontStyle=1" vertex="1" parent="1">
          <mxGeometry x="1871" y="650" width="60" height="60" as="geometry" />
        </mxCell>
        <mxCell id="e0liQvdCcjfhZNM5xDvp-181" value="" style="rounded=0;whiteSpace=wrap;html=1;strokeWidth=2;fontSize=20;fontStyle=1" vertex="1" parent="1">
          <mxGeometry x="1931" y="650" width="60" height="60" as="geometry" />
        </mxCell>
        <mxCell id="e0liQvdCcjfhZNM5xDvp-182" value="" style="rounded=0;whiteSpace=wrap;html=1;strokeWidth=2;fontSize=20;fontStyle=1" vertex="1" parent="1">
          <mxGeometry x="1991" y="650" width="60" height="60" as="geometry" />
        </mxCell>
        <mxCell id="e0liQvdCcjfhZNM5xDvp-183" value="" style="rounded=0;whiteSpace=wrap;html=1;strokeWidth=2;fontSize=20;fontStyle=1" vertex="1" parent="1">
          <mxGeometry x="2051" y="650" width="60" height="60" as="geometry" />
        </mxCell>
        <mxCell id="e0liQvdCcjfhZNM5xDvp-184" value="" style="rounded=0;whiteSpace=wrap;html=1;strokeWidth=2;fontSize=20;fontStyle=1" vertex="1" parent="1">
          <mxGeometry x="2111" y="650" width="60" height="60" as="geometry" />
        </mxCell>
        <mxCell id="e0liQvdCcjfhZNM5xDvp-185" value=".&lt;br style=&quot;font-size: 20px;&quot;&gt;.&lt;br style=&quot;font-size: 20px;&quot;&gt;." style="text;html=1;align=center;verticalAlign=middle;resizable=0;points=[];autosize=1;strokeColor=none;fillColor=none;strokeWidth=2;fontSize=20;fontStyle=1" vertex="1" parent="1">
          <mxGeometry x="1776" y="635" width="30" height="90" as="geometry" />
        </mxCell>
        <mxCell id="e0liQvdCcjfhZNM5xDvp-186" value="" style="rounded=0;whiteSpace=wrap;html=1;strokeWidth=2;fontSize=20;fontStyle=1" vertex="1" parent="1">
          <mxGeometry x="1811" y="730" width="60" height="60" as="geometry" />
        </mxCell>
        <mxCell id="e0liQvdCcjfhZNM5xDvp-187" value="" style="rounded=0;whiteSpace=wrap;html=1;strokeWidth=2;fontSize=20;fontStyle=1" vertex="1" parent="1">
          <mxGeometry x="1871" y="730" width="60" height="60" as="geometry" />
        </mxCell>
        <mxCell id="e0liQvdCcjfhZNM5xDvp-188" value="" style="rounded=0;whiteSpace=wrap;html=1;strokeWidth=2;fontSize=20;fontStyle=1" vertex="1" parent="1">
          <mxGeometry x="1931" y="730" width="60" height="60" as="geometry" />
        </mxCell>
        <mxCell id="e0liQvdCcjfhZNM5xDvp-189" value="" style="rounded=0;whiteSpace=wrap;html=1;strokeWidth=2;fontSize=20;fontStyle=1" vertex="1" parent="1">
          <mxGeometry x="1991" y="730" width="60" height="60" as="geometry" />
        </mxCell>
        <mxCell id="e0liQvdCcjfhZNM5xDvp-190" value="" style="rounded=0;whiteSpace=wrap;html=1;strokeWidth=2;fontSize=20;fontStyle=1" vertex="1" parent="1">
          <mxGeometry x="2051" y="730" width="60" height="60" as="geometry" />
        </mxCell>
        <mxCell id="e0liQvdCcjfhZNM5xDvp-191" value="" style="rounded=0;whiteSpace=wrap;html=1;strokeWidth=2;fontSize=20;fontStyle=1" vertex="1" parent="1">
          <mxGeometry x="2111" y="730" width="60" height="60" as="geometry" />
        </mxCell>
        <mxCell id="e0liQvdCcjfhZNM5xDvp-192" value="Z1" style="text;html=1;align=center;verticalAlign=middle;resizable=0;points=[];autosize=1;strokeColor=none;fillColor=none;strokeWidth=2;fontSize=20;fontStyle=1" vertex="1" parent="1">
          <mxGeometry x="1766" y="740" width="50" height="40" as="geometry" />
        </mxCell>
        <mxCell id="e0liQvdCcjfhZNM5xDvp-193" value="" style="rounded=0;whiteSpace=wrap;html=1;strokeWidth=2;fontSize=20;fontStyle=1" vertex="1" parent="1">
          <mxGeometry x="1811" y="790" width="60" height="60" as="geometry" />
        </mxCell>
        <mxCell id="e0liQvdCcjfhZNM5xDvp-194" value="" style="rounded=0;whiteSpace=wrap;html=1;strokeWidth=2;fontSize=20;fontStyle=1" vertex="1" parent="1">
          <mxGeometry x="1871" y="790" width="60" height="60" as="geometry" />
        </mxCell>
        <mxCell id="e0liQvdCcjfhZNM5xDvp-195" value="" style="rounded=0;whiteSpace=wrap;html=1;strokeWidth=2;fontSize=20;fontStyle=1" vertex="1" parent="1">
          <mxGeometry x="1931" y="790" width="60" height="60" as="geometry" />
        </mxCell>
        <mxCell id="e0liQvdCcjfhZNM5xDvp-196" value="" style="rounded=0;whiteSpace=wrap;html=1;strokeWidth=2;fontSize=20;fontStyle=1" vertex="1" parent="1">
          <mxGeometry x="1991" y="790" width="60" height="60" as="geometry" />
        </mxCell>
        <mxCell id="e0liQvdCcjfhZNM5xDvp-197" value="" style="rounded=0;whiteSpace=wrap;html=1;strokeWidth=2;fontSize=20;fontStyle=1" vertex="1" parent="1">
          <mxGeometry x="2051" y="790" width="60" height="60" as="geometry" />
        </mxCell>
        <mxCell id="e0liQvdCcjfhZNM5xDvp-198" value="" style="rounded=0;whiteSpace=wrap;html=1;strokeWidth=2;fontSize=20;fontStyle=1" vertex="1" parent="1">
          <mxGeometry x="2111" y="790" width="60" height="60" as="geometry" />
        </mxCell>
        <mxCell id="e0liQvdCcjfhZNM5xDvp-199" value=".&lt;br style=&quot;font-size: 20px;&quot;&gt;.&lt;br style=&quot;font-size: 20px;&quot;&gt;." style="text;html=1;align=center;verticalAlign=middle;resizable=0;points=[];autosize=1;strokeColor=none;fillColor=none;strokeWidth=2;fontSize=20;fontStyle=1" vertex="1" parent="1">
          <mxGeometry x="1776" y="775" width="30" height="90" as="geometry" />
        </mxCell>
        <mxCell id="e0liQvdCcjfhZNM5xDvp-248" value="" style="shape=flexArrow;endArrow=classic;html=1;rounded=0;fillColor=#000000;strokeWidth=2;fontSize=20;fontStyle=1" edge="1" parent="1">
          <mxGeometry width="50" height="50" relative="1" as="geometry">
            <mxPoint x="2230" y="238.32999999999998" as="sourcePoint" />
            <mxPoint x="2350" y="238.32999999999998" as="targetPoint" />
          </mxGeometry>
        </mxCell>
        <mxCell id="e0liQvdCcjfhZNM5xDvp-249" value="&lt;span style=&quot;font-size: 20px;&quot;&gt;Training Model&lt;/span&gt;" style="text;html=1;align=center;verticalAlign=middle;resizable=0;points=[];autosize=1;strokeColor=none;fillColor=none;strokeWidth=2;" vertex="1" parent="1">
          <mxGeometry x="2210" y="163.32999999999998" width="160" height="40" as="geometry" />
        </mxCell>
        <mxCell id="e0liQvdCcjfhZNM5xDvp-270" value="&lt;font style=&quot;font-size: 40px;&quot;&gt;Weights of The &lt;br&gt;5 Models&lt;br&gt;&lt;/font&gt;" style="text;html=1;align=center;verticalAlign=middle;resizable=0;points=[];autosize=1;strokeColor=none;fillColor=none;strokeWidth=2;" vertex="1" parent="1">
          <mxGeometry x="2468" y="20" width="290" height="110" as="geometry" />
        </mxCell>
        <mxCell id="e0liQvdCcjfhZNM5xDvp-271" value="" style="rounded=0;whiteSpace=wrap;html=1;strokeWidth=2;fontSize=20;fontStyle=1" vertex="1" parent="1">
          <mxGeometry x="2425" y="155" width="60" height="60" as="geometry" />
        </mxCell>
        <mxCell id="e0liQvdCcjfhZNM5xDvp-272" value="" style="rounded=0;whiteSpace=wrap;html=1;strokeWidth=2;fontSize=20;fontStyle=1" vertex="1" parent="1">
          <mxGeometry x="2485" y="155" width="60" height="60" as="geometry" />
        </mxCell>
        <mxCell id="e0liQvdCcjfhZNM5xDvp-273" value="" style="rounded=0;whiteSpace=wrap;html=1;strokeWidth=2;fontSize=20;fontStyle=1" vertex="1" parent="1">
          <mxGeometry x="2545" y="155" width="60" height="60" as="geometry" />
        </mxCell>
        <mxCell id="e0liQvdCcjfhZNM5xDvp-274" value="" style="rounded=0;whiteSpace=wrap;html=1;strokeWidth=2;fontSize=20;fontStyle=1" vertex="1" parent="1">
          <mxGeometry x="2605" y="155" width="60" height="60" as="geometry" />
        </mxCell>
        <mxCell id="e0liQvdCcjfhZNM5xDvp-275" value="" style="rounded=0;whiteSpace=wrap;html=1;strokeWidth=2;fontSize=20;fontStyle=1" vertex="1" parent="1">
          <mxGeometry x="2665" y="155" width="60" height="60" as="geometry" />
        </mxCell>
        <mxCell id="e0liQvdCcjfhZNM5xDvp-276" value="" style="rounded=0;whiteSpace=wrap;html=1;strokeWidth=2;fontSize=20;fontStyle=1" vertex="1" parent="1">
          <mxGeometry x="2725" y="155" width="60" height="60" as="geometry" />
        </mxCell>
        <mxCell id="e0liQvdCcjfhZNM5xDvp-277" value="A1" style="text;html=1;align=center;verticalAlign=middle;resizable=0;points=[];autosize=1;strokeColor=none;fillColor=none;strokeWidth=2;fontSize=20;fontStyle=1" vertex="1" parent="1">
          <mxGeometry x="2430" y="120" width="50" height="40" as="geometry" />
        </mxCell>
        <mxCell id="e0liQvdCcjfhZNM5xDvp-278" value="A2" style="text;html=1;align=center;verticalAlign=middle;resizable=0;points=[];autosize=1;strokeColor=none;fillColor=none;strokeWidth=2;fontSize=20;fontStyle=1" vertex="1" parent="1">
          <mxGeometry x="2490" y="120" width="50" height="40" as="geometry" />
        </mxCell>
        <mxCell id="e0liQvdCcjfhZNM5xDvp-279" value="A3" style="text;html=1;align=center;verticalAlign=middle;resizable=0;points=[];autosize=1;strokeColor=none;fillColor=none;strokeWidth=2;fontSize=20;fontStyle=1" vertex="1" parent="1">
          <mxGeometry x="2550" y="120" width="50" height="40" as="geometry" />
        </mxCell>
        <mxCell id="e0liQvdCcjfhZNM5xDvp-280" value="A4" style="text;html=1;align=center;verticalAlign=middle;resizable=0;points=[];autosize=1;strokeColor=none;fillColor=none;strokeWidth=2;fontSize=20;fontStyle=1" vertex="1" parent="1">
          <mxGeometry x="2610" y="120" width="50" height="40" as="geometry" />
        </mxCell>
        <mxCell id="e0liQvdCcjfhZNM5xDvp-281" value="An" style="text;html=1;align=center;verticalAlign=middle;resizable=0;points=[];autosize=1;strokeColor=none;fillColor=none;strokeWidth=2;fontSize=20;fontStyle=1" vertex="1" parent="1">
          <mxGeometry x="2730" y="120" width="50" height="40" as="geometry" />
        </mxCell>
        <mxCell id="e0liQvdCcjfhZNM5xDvp-282" value="..." style="text;html=1;align=center;verticalAlign=middle;resizable=0;points=[];autosize=1;strokeColor=none;fillColor=none;strokeWidth=2;fontSize=20;fontStyle=1" vertex="1" parent="1">
          <mxGeometry x="2675" y="120" width="40" height="40" as="geometry" />
        </mxCell>
        <mxCell id="e0liQvdCcjfhZNM5xDvp-283" value="" style="rounded=0;whiteSpace=wrap;html=1;strokeWidth=2;fontSize=20;fontStyle=1" vertex="1" parent="1">
          <mxGeometry x="2425" y="215" width="60" height="60" as="geometry" />
        </mxCell>
        <mxCell id="e0liQvdCcjfhZNM5xDvp-284" value="" style="rounded=0;whiteSpace=wrap;html=1;strokeWidth=2;fontSize=20;fontStyle=1" vertex="1" parent="1">
          <mxGeometry x="2485" y="215" width="60" height="60" as="geometry" />
        </mxCell>
        <mxCell id="e0liQvdCcjfhZNM5xDvp-285" value="" style="rounded=0;whiteSpace=wrap;html=1;strokeWidth=2;fontSize=20;fontStyle=1" vertex="1" parent="1">
          <mxGeometry x="2545" y="215" width="60" height="60" as="geometry" />
        </mxCell>
        <mxCell id="e0liQvdCcjfhZNM5xDvp-286" value="" style="rounded=0;whiteSpace=wrap;html=1;strokeWidth=2;fontSize=20;fontStyle=1" vertex="1" parent="1">
          <mxGeometry x="2605" y="215" width="60" height="60" as="geometry" />
        </mxCell>
        <mxCell id="e0liQvdCcjfhZNM5xDvp-287" value="" style="rounded=0;whiteSpace=wrap;html=1;strokeWidth=2;fontSize=20;fontStyle=1" vertex="1" parent="1">
          <mxGeometry x="2665" y="215" width="60" height="60" as="geometry" />
        </mxCell>
        <mxCell id="e0liQvdCcjfhZNM5xDvp-288" value="" style="rounded=0;whiteSpace=wrap;html=1;strokeWidth=2;fontSize=20;fontStyle=1" vertex="1" parent="1">
          <mxGeometry x="2725" y="215" width="60" height="60" as="geometry" />
        </mxCell>
        <mxCell id="e0liQvdCcjfhZNM5xDvp-289" value="U1" style="text;html=1;align=center;verticalAlign=middle;resizable=0;points=[];autosize=1;strokeColor=none;fillColor=none;strokeWidth=2;fontSize=20;fontStyle=1" vertex="1" parent="1">
          <mxGeometry x="2380" y="165" width="50" height="40" as="geometry" />
        </mxCell>
        <mxCell id="e0liQvdCcjfhZNM5xDvp-290" value=".&lt;br style=&quot;font-size: 20px;&quot;&gt;.&lt;br style=&quot;font-size: 20px;&quot;&gt;." style="text;html=1;align=center;verticalAlign=middle;resizable=0;points=[];autosize=1;strokeColor=none;fillColor=none;strokeWidth=2;fontSize=20;fontStyle=1" vertex="1" parent="1">
          <mxGeometry x="2390" y="200" width="30" height="90" as="geometry" />
        </mxCell>
        <mxCell id="e0liQvdCcjfhZNM5xDvp-291" value="" style="rounded=0;whiteSpace=wrap;html=1;strokeWidth=2;fontSize=20;fontStyle=1" vertex="1" parent="1">
          <mxGeometry x="2425" y="305" width="60" height="60" as="geometry" />
        </mxCell>
        <mxCell id="e0liQvdCcjfhZNM5xDvp-292" value="" style="rounded=0;whiteSpace=wrap;html=1;strokeWidth=2;fontSize=20;fontStyle=1" vertex="1" parent="1">
          <mxGeometry x="2485" y="305" width="60" height="60" as="geometry" />
        </mxCell>
        <mxCell id="e0liQvdCcjfhZNM5xDvp-293" value="" style="rounded=0;whiteSpace=wrap;html=1;strokeWidth=2;fontSize=20;fontStyle=1" vertex="1" parent="1">
          <mxGeometry x="2545" y="305" width="60" height="60" as="geometry" />
        </mxCell>
        <mxCell id="e0liQvdCcjfhZNM5xDvp-294" value="" style="rounded=0;whiteSpace=wrap;html=1;strokeWidth=2;fontSize=20;fontStyle=1" vertex="1" parent="1">
          <mxGeometry x="2605" y="305" width="60" height="60" as="geometry" />
        </mxCell>
        <mxCell id="e0liQvdCcjfhZNM5xDvp-295" value="" style="rounded=0;whiteSpace=wrap;html=1;strokeWidth=2;fontSize=20;fontStyle=1" vertex="1" parent="1">
          <mxGeometry x="2665" y="305" width="60" height="60" as="geometry" />
        </mxCell>
        <mxCell id="e0liQvdCcjfhZNM5xDvp-296" value="" style="rounded=0;whiteSpace=wrap;html=1;strokeWidth=2;fontSize=20;fontStyle=1" vertex="1" parent="1">
          <mxGeometry x="2725" y="305" width="60" height="60" as="geometry" />
        </mxCell>
        <mxCell id="e0liQvdCcjfhZNM5xDvp-297" value="X1" style="text;html=1;align=center;verticalAlign=middle;resizable=0;points=[];autosize=1;strokeColor=none;fillColor=none;strokeWidth=2;fontSize=20;fontStyle=1" vertex="1" parent="1">
          <mxGeometry x="2380" y="315" width="50" height="40" as="geometry" />
        </mxCell>
        <mxCell id="e0liQvdCcjfhZNM5xDvp-298" value="" style="rounded=0;whiteSpace=wrap;html=1;strokeWidth=2;fontSize=20;fontStyle=1" vertex="1" parent="1">
          <mxGeometry x="2425" y="365" width="60" height="60" as="geometry" />
        </mxCell>
        <mxCell id="e0liQvdCcjfhZNM5xDvp-299" value="" style="rounded=0;whiteSpace=wrap;html=1;strokeWidth=2;fontSize=20;fontStyle=1" vertex="1" parent="1">
          <mxGeometry x="2485" y="365" width="60" height="60" as="geometry" />
        </mxCell>
        <mxCell id="e0liQvdCcjfhZNM5xDvp-300" value="" style="rounded=0;whiteSpace=wrap;html=1;strokeWidth=2;fontSize=20;fontStyle=1" vertex="1" parent="1">
          <mxGeometry x="2545" y="365" width="60" height="60" as="geometry" />
        </mxCell>
        <mxCell id="e0liQvdCcjfhZNM5xDvp-301" value="" style="rounded=0;whiteSpace=wrap;html=1;strokeWidth=2;fontSize=20;fontStyle=1" vertex="1" parent="1">
          <mxGeometry x="2605" y="365" width="60" height="60" as="geometry" />
        </mxCell>
        <mxCell id="e0liQvdCcjfhZNM5xDvp-302" value="" style="rounded=0;whiteSpace=wrap;html=1;strokeWidth=2;fontSize=20;fontStyle=1" vertex="1" parent="1">
          <mxGeometry x="2665" y="365" width="60" height="60" as="geometry" />
        </mxCell>
        <mxCell id="e0liQvdCcjfhZNM5xDvp-303" value="" style="rounded=0;whiteSpace=wrap;html=1;strokeWidth=2;fontSize=20;fontStyle=1" vertex="1" parent="1">
          <mxGeometry x="2725" y="365" width="60" height="60" as="geometry" />
        </mxCell>
        <mxCell id="e0liQvdCcjfhZNM5xDvp-304" value=".&lt;br style=&quot;font-size: 20px;&quot;&gt;.&lt;br style=&quot;font-size: 20px;&quot;&gt;." style="text;html=1;align=center;verticalAlign=middle;resizable=0;points=[];autosize=1;strokeColor=none;fillColor=none;strokeWidth=2;fontSize=20;fontStyle=1" vertex="1" parent="1">
          <mxGeometry x="2390" y="350" width="30" height="90" as="geometry" />
        </mxCell>
        <mxCell id="e0liQvdCcjfhZNM5xDvp-305" value="" style="rounded=0;whiteSpace=wrap;html=1;strokeWidth=2;fontSize=20;fontStyle=1" vertex="1" parent="1">
          <mxGeometry x="2425" y="450" width="60" height="60" as="geometry" />
        </mxCell>
        <mxCell id="e0liQvdCcjfhZNM5xDvp-306" value="" style="rounded=0;whiteSpace=wrap;html=1;strokeWidth=2;fontSize=20;fontStyle=1" vertex="1" parent="1">
          <mxGeometry x="2485" y="450" width="60" height="60" as="geometry" />
        </mxCell>
        <mxCell id="e0liQvdCcjfhZNM5xDvp-307" value="" style="rounded=0;whiteSpace=wrap;html=1;strokeWidth=2;fontSize=20;fontStyle=1" vertex="1" parent="1">
          <mxGeometry x="2545" y="450" width="60" height="60" as="geometry" />
        </mxCell>
        <mxCell id="e0liQvdCcjfhZNM5xDvp-308" value="" style="rounded=0;whiteSpace=wrap;html=1;strokeWidth=2;fontSize=20;fontStyle=1" vertex="1" parent="1">
          <mxGeometry x="2605" y="450" width="60" height="60" as="geometry" />
        </mxCell>
        <mxCell id="e0liQvdCcjfhZNM5xDvp-309" value="" style="rounded=0;whiteSpace=wrap;html=1;strokeWidth=2;fontSize=20;fontStyle=1" vertex="1" parent="1">
          <mxGeometry x="2665" y="450" width="60" height="60" as="geometry" />
        </mxCell>
        <mxCell id="e0liQvdCcjfhZNM5xDvp-310" value="" style="rounded=0;whiteSpace=wrap;html=1;strokeWidth=2;fontSize=20;fontStyle=1" vertex="1" parent="1">
          <mxGeometry x="2725" y="450" width="60" height="60" as="geometry" />
        </mxCell>
        <mxCell id="e0liQvdCcjfhZNM5xDvp-311" value="Y1" style="text;html=1;align=center;verticalAlign=middle;resizable=0;points=[];autosize=1;strokeColor=none;fillColor=none;strokeWidth=2;fontSize=20;fontStyle=1" vertex="1" parent="1">
          <mxGeometry x="2380" y="460" width="50" height="40" as="geometry" />
        </mxCell>
        <mxCell id="e0liQvdCcjfhZNM5xDvp-312" value="" style="rounded=0;whiteSpace=wrap;html=1;strokeWidth=2;fontSize=20;fontStyle=1" vertex="1" parent="1">
          <mxGeometry x="2425" y="510" width="60" height="60" as="geometry" />
        </mxCell>
        <mxCell id="e0liQvdCcjfhZNM5xDvp-313" value="" style="rounded=0;whiteSpace=wrap;html=1;strokeWidth=2;fontSize=20;fontStyle=1" vertex="1" parent="1">
          <mxGeometry x="2485" y="510" width="60" height="60" as="geometry" />
        </mxCell>
        <mxCell id="e0liQvdCcjfhZNM5xDvp-314" value="" style="rounded=0;whiteSpace=wrap;html=1;strokeWidth=2;fontSize=20;fontStyle=1" vertex="1" parent="1">
          <mxGeometry x="2545" y="510" width="60" height="60" as="geometry" />
        </mxCell>
        <mxCell id="e0liQvdCcjfhZNM5xDvp-315" value="" style="rounded=0;whiteSpace=wrap;html=1;strokeWidth=2;fontSize=20;fontStyle=1" vertex="1" parent="1">
          <mxGeometry x="2605" y="510" width="60" height="60" as="geometry" />
        </mxCell>
        <mxCell id="e0liQvdCcjfhZNM5xDvp-316" value="" style="rounded=0;whiteSpace=wrap;html=1;strokeWidth=2;fontSize=20;fontStyle=1" vertex="1" parent="1">
          <mxGeometry x="2665" y="510" width="60" height="60" as="geometry" />
        </mxCell>
        <mxCell id="e0liQvdCcjfhZNM5xDvp-317" value="" style="rounded=0;whiteSpace=wrap;html=1;strokeWidth=2;fontSize=20;fontStyle=1" vertex="1" parent="1">
          <mxGeometry x="2725" y="510" width="60" height="60" as="geometry" />
        </mxCell>
        <mxCell id="e0liQvdCcjfhZNM5xDvp-318" value=".&lt;br style=&quot;font-size: 20px;&quot;&gt;.&lt;br style=&quot;font-size: 20px;&quot;&gt;." style="text;html=1;align=center;verticalAlign=middle;resizable=0;points=[];autosize=1;strokeColor=none;fillColor=none;strokeWidth=2;fontSize=20;fontStyle=1" vertex="1" parent="1">
          <mxGeometry x="2390" y="495" width="30" height="90" as="geometry" />
        </mxCell>
        <mxCell id="e0liQvdCcjfhZNM5xDvp-319" value="" style="rounded=0;whiteSpace=wrap;html=1;strokeWidth=2;fontSize=20;fontStyle=1" vertex="1" parent="1">
          <mxGeometry x="2425" y="590" width="60" height="60" as="geometry" />
        </mxCell>
        <mxCell id="e0liQvdCcjfhZNM5xDvp-320" value="" style="rounded=0;whiteSpace=wrap;html=1;strokeWidth=2;fontSize=20;fontStyle=1" vertex="1" parent="1">
          <mxGeometry x="2485" y="590" width="60" height="60" as="geometry" />
        </mxCell>
        <mxCell id="e0liQvdCcjfhZNM5xDvp-321" value="" style="rounded=0;whiteSpace=wrap;html=1;strokeWidth=2;fontSize=20;fontStyle=1" vertex="1" parent="1">
          <mxGeometry x="2545" y="590" width="60" height="60" as="geometry" />
        </mxCell>
        <mxCell id="e0liQvdCcjfhZNM5xDvp-322" value="" style="rounded=0;whiteSpace=wrap;html=1;strokeWidth=2;fontSize=20;fontStyle=1" vertex="1" parent="1">
          <mxGeometry x="2605" y="590" width="60" height="60" as="geometry" />
        </mxCell>
        <mxCell id="e0liQvdCcjfhZNM5xDvp-323" value="" style="rounded=0;whiteSpace=wrap;html=1;strokeWidth=2;fontSize=20;fontStyle=1" vertex="1" parent="1">
          <mxGeometry x="2665" y="590" width="60" height="60" as="geometry" />
        </mxCell>
        <mxCell id="e0liQvdCcjfhZNM5xDvp-324" value="" style="rounded=0;whiteSpace=wrap;html=1;strokeWidth=2;fontSize=20;fontStyle=1" vertex="1" parent="1">
          <mxGeometry x="2725" y="590" width="60" height="60" as="geometry" />
        </mxCell>
        <mxCell id="e0liQvdCcjfhZNM5xDvp-325" value="W1" style="text;html=1;align=center;verticalAlign=middle;resizable=0;points=[];autosize=1;strokeColor=none;fillColor=none;strokeWidth=2;fontSize=20;fontStyle=1" vertex="1" parent="1">
          <mxGeometry x="2380" y="600" width="50" height="40" as="geometry" />
        </mxCell>
        <mxCell id="e0liQvdCcjfhZNM5xDvp-326" value="" style="rounded=0;whiteSpace=wrap;html=1;strokeWidth=2;fontSize=20;fontStyle=1" vertex="1" parent="1">
          <mxGeometry x="2425" y="650" width="60" height="60" as="geometry" />
        </mxCell>
        <mxCell id="e0liQvdCcjfhZNM5xDvp-327" value="" style="rounded=0;whiteSpace=wrap;html=1;strokeWidth=2;fontSize=20;fontStyle=1" vertex="1" parent="1">
          <mxGeometry x="2485" y="650" width="60" height="60" as="geometry" />
        </mxCell>
        <mxCell id="e0liQvdCcjfhZNM5xDvp-328" value="" style="rounded=0;whiteSpace=wrap;html=1;strokeWidth=2;fontSize=20;fontStyle=1" vertex="1" parent="1">
          <mxGeometry x="2545" y="650" width="60" height="60" as="geometry" />
        </mxCell>
        <mxCell id="e0liQvdCcjfhZNM5xDvp-329" value="" style="rounded=0;whiteSpace=wrap;html=1;strokeWidth=2;fontSize=20;fontStyle=1" vertex="1" parent="1">
          <mxGeometry x="2605" y="650" width="60" height="60" as="geometry" />
        </mxCell>
        <mxCell id="e0liQvdCcjfhZNM5xDvp-330" value="" style="rounded=0;whiteSpace=wrap;html=1;strokeWidth=2;fontSize=20;fontStyle=1" vertex="1" parent="1">
          <mxGeometry x="2665" y="650" width="60" height="60" as="geometry" />
        </mxCell>
        <mxCell id="e0liQvdCcjfhZNM5xDvp-331" value="" style="rounded=0;whiteSpace=wrap;html=1;strokeWidth=2;fontSize=20;fontStyle=1" vertex="1" parent="1">
          <mxGeometry x="2725" y="650" width="60" height="60" as="geometry" />
        </mxCell>
        <mxCell id="e0liQvdCcjfhZNM5xDvp-332" value=".&lt;br style=&quot;font-size: 20px;&quot;&gt;.&lt;br style=&quot;font-size: 20px;&quot;&gt;." style="text;html=1;align=center;verticalAlign=middle;resizable=0;points=[];autosize=1;strokeColor=none;fillColor=none;strokeWidth=2;fontSize=20;fontStyle=1" vertex="1" parent="1">
          <mxGeometry x="2390" y="635" width="30" height="90" as="geometry" />
        </mxCell>
        <mxCell id="e0liQvdCcjfhZNM5xDvp-333" value="" style="rounded=0;whiteSpace=wrap;html=1;strokeWidth=2;fontSize=20;fontStyle=1" vertex="1" parent="1">
          <mxGeometry x="2425" y="730" width="60" height="60" as="geometry" />
        </mxCell>
        <mxCell id="e0liQvdCcjfhZNM5xDvp-334" value="" style="rounded=0;whiteSpace=wrap;html=1;strokeWidth=2;fontSize=20;fontStyle=1" vertex="1" parent="1">
          <mxGeometry x="2485" y="730" width="60" height="60" as="geometry" />
        </mxCell>
        <mxCell id="e0liQvdCcjfhZNM5xDvp-335" value="" style="rounded=0;whiteSpace=wrap;html=1;strokeWidth=2;fontSize=20;fontStyle=1" vertex="1" parent="1">
          <mxGeometry x="2545" y="730" width="60" height="60" as="geometry" />
        </mxCell>
        <mxCell id="e0liQvdCcjfhZNM5xDvp-336" value="" style="rounded=0;whiteSpace=wrap;html=1;strokeWidth=2;fontSize=20;fontStyle=1" vertex="1" parent="1">
          <mxGeometry x="2605" y="730" width="60" height="60" as="geometry" />
        </mxCell>
        <mxCell id="e0liQvdCcjfhZNM5xDvp-337" value="" style="rounded=0;whiteSpace=wrap;html=1;strokeWidth=2;fontSize=20;fontStyle=1" vertex="1" parent="1">
          <mxGeometry x="2665" y="730" width="60" height="60" as="geometry" />
        </mxCell>
        <mxCell id="e0liQvdCcjfhZNM5xDvp-338" value="" style="rounded=0;whiteSpace=wrap;html=1;strokeWidth=2;fontSize=20;fontStyle=1" vertex="1" parent="1">
          <mxGeometry x="2725" y="730" width="60" height="60" as="geometry" />
        </mxCell>
        <mxCell id="e0liQvdCcjfhZNM5xDvp-339" value="Z1" style="text;html=1;align=center;verticalAlign=middle;resizable=0;points=[];autosize=1;strokeColor=none;fillColor=none;strokeWidth=2;fontSize=20;fontStyle=1" vertex="1" parent="1">
          <mxGeometry x="2380" y="740" width="50" height="40" as="geometry" />
        </mxCell>
        <mxCell id="e0liQvdCcjfhZNM5xDvp-340" value="" style="rounded=0;whiteSpace=wrap;html=1;strokeWidth=2;fontSize=20;fontStyle=1" vertex="1" parent="1">
          <mxGeometry x="2425" y="790" width="60" height="60" as="geometry" />
        </mxCell>
        <mxCell id="e0liQvdCcjfhZNM5xDvp-341" value="" style="rounded=0;whiteSpace=wrap;html=1;strokeWidth=2;fontSize=20;fontStyle=1" vertex="1" parent="1">
          <mxGeometry x="2485" y="790" width="60" height="60" as="geometry" />
        </mxCell>
        <mxCell id="e0liQvdCcjfhZNM5xDvp-342" value="" style="rounded=0;whiteSpace=wrap;html=1;strokeWidth=2;fontSize=20;fontStyle=1" vertex="1" parent="1">
          <mxGeometry x="2545" y="790" width="60" height="60" as="geometry" />
        </mxCell>
        <mxCell id="e0liQvdCcjfhZNM5xDvp-343" value="" style="rounded=0;whiteSpace=wrap;html=1;strokeWidth=2;fontSize=20;fontStyle=1" vertex="1" parent="1">
          <mxGeometry x="2605" y="790" width="60" height="60" as="geometry" />
        </mxCell>
        <mxCell id="e0liQvdCcjfhZNM5xDvp-344" value="" style="rounded=0;whiteSpace=wrap;html=1;strokeWidth=2;fontSize=20;fontStyle=1" vertex="1" parent="1">
          <mxGeometry x="2665" y="790" width="60" height="60" as="geometry" />
        </mxCell>
        <mxCell id="e0liQvdCcjfhZNM5xDvp-345" value="" style="rounded=0;whiteSpace=wrap;html=1;strokeWidth=2;fontSize=20;fontStyle=1" vertex="1" parent="1">
          <mxGeometry x="2725" y="790" width="60" height="60" as="geometry" />
        </mxCell>
        <mxCell id="e0liQvdCcjfhZNM5xDvp-346" value=".&lt;br style=&quot;font-size: 20px;&quot;&gt;.&lt;br style=&quot;font-size: 20px;&quot;&gt;." style="text;html=1;align=center;verticalAlign=middle;resizable=0;points=[];autosize=1;strokeColor=none;fillColor=none;strokeWidth=2;fontSize=20;fontStyle=1" vertex="1" parent="1">
          <mxGeometry x="2390" y="775" width="30" height="90" as="geometry" />
        </mxCell>
        <mxCell id="e0liQvdCcjfhZNM5xDvp-347" value="" style="shape=flexArrow;endArrow=classic;html=1;rounded=0;fillColor=#000000;strokeWidth=2;fontSize=20;fontStyle=1" edge="1" parent="1">
          <mxGeometry width="50" height="50" relative="1" as="geometry">
            <mxPoint x="2230" y="398.33" as="sourcePoint" />
            <mxPoint x="2350" y="398.33" as="targetPoint" />
          </mxGeometry>
        </mxCell>
        <mxCell id="e0liQvdCcjfhZNM5xDvp-348" value="&lt;span style=&quot;font-size: 20px;&quot;&gt;Training Model&lt;/span&gt;" style="text;html=1;align=center;verticalAlign=middle;resizable=0;points=[];autosize=1;strokeColor=none;fillColor=none;strokeWidth=2;" vertex="1" parent="1">
          <mxGeometry x="2210" y="323.33" width="160" height="40" as="geometry" />
        </mxCell>
        <mxCell id="e0liQvdCcjfhZNM5xDvp-349" value="" style="shape=flexArrow;endArrow=classic;html=1;rounded=0;fillColor=#000000;strokeWidth=2;fontSize=20;fontStyle=1" edge="1" parent="1">
          <mxGeometry width="50" height="50" relative="1" as="geometry">
            <mxPoint x="2230" y="534.9999999999999" as="sourcePoint" />
            <mxPoint x="2350" y="534.9999999999999" as="targetPoint" />
          </mxGeometry>
        </mxCell>
        <mxCell id="e0liQvdCcjfhZNM5xDvp-350" value="&lt;span style=&quot;font-size: 20px;&quot;&gt;Training Model&lt;/span&gt;" style="text;html=1;align=center;verticalAlign=middle;resizable=0;points=[];autosize=1;strokeColor=none;fillColor=none;strokeWidth=2;" vertex="1" parent="1">
          <mxGeometry x="2210" y="460" width="160" height="40" as="geometry" />
        </mxCell>
        <mxCell id="e0liQvdCcjfhZNM5xDvp-351" value="" style="shape=flexArrow;endArrow=classic;html=1;rounded=0;fillColor=#000000;strokeWidth=2;fontSize=20;fontStyle=1" edge="1" parent="1">
          <mxGeometry width="50" height="50" relative="1" as="geometry">
            <mxPoint x="2230" y="679.9999999999999" as="sourcePoint" />
            <mxPoint x="2350" y="679.9999999999999" as="targetPoint" />
          </mxGeometry>
        </mxCell>
        <mxCell id="e0liQvdCcjfhZNM5xDvp-352" value="&lt;span style=&quot;font-size: 20px;&quot;&gt;Training Model&lt;/span&gt;" style="text;html=1;align=center;verticalAlign=middle;resizable=0;points=[];autosize=1;strokeColor=none;fillColor=none;strokeWidth=2;" vertex="1" parent="1">
          <mxGeometry x="2210" y="604.9999999999999" width="160" height="40" as="geometry" />
        </mxCell>
        <mxCell id="e0liQvdCcjfhZNM5xDvp-353" value="" style="shape=flexArrow;endArrow=classic;html=1;rounded=0;fillColor=#000000;strokeWidth=2;fontSize=20;fontStyle=1" edge="1" parent="1">
          <mxGeometry width="50" height="50" relative="1" as="geometry">
            <mxPoint x="2230" y="819.9999999999999" as="sourcePoint" />
            <mxPoint x="2350" y="819.9999999999999" as="targetPoint" />
          </mxGeometry>
        </mxCell>
        <mxCell id="e0liQvdCcjfhZNM5xDvp-354" value="&lt;span style=&quot;font-size: 20px;&quot;&gt;Training Model&lt;/span&gt;" style="text;html=1;align=center;verticalAlign=middle;resizable=0;points=[];autosize=1;strokeColor=none;fillColor=none;strokeWidth=2;" vertex="1" parent="1">
          <mxGeometry x="2210" y="744.9999999999999" width="160" height="40" as="geometry" />
        </mxCell>
        <mxCell id="e0liQvdCcjfhZNM5xDvp-355" value="" style="shape=flexArrow;endArrow=classic;html=1;rounded=0;exitX=1;exitY=0;exitDx=0;exitDy=0;fillColor=#363636;strokeWidth=2;fontSize=20;fontStyle=1" edge="1" parent="1" source="e0liQvdCcjfhZNM5xDvp-317">
          <mxGeometry width="50" height="50" relative="1" as="geometry">
            <mxPoint x="2810" y="520" as="sourcePoint" />
            <mxPoint x="3010" y="510" as="targetPoint" />
          </mxGeometry>
        </mxCell>
        <mxCell id="e0liQvdCcjfhZNM5xDvp-356" value="" style="shape=link;html=1;rounded=0;exitX=1;exitY=0;exitDx=0;exitDy=0;strokeColor=#000000;strokeWidth=2;fontSize=20;fontStyle=1" edge="1" parent="1" source="e0liQvdCcjfhZNM5xDvp-303">
          <mxGeometry width="100" relative="1" as="geometry">
            <mxPoint x="2560" y="450" as="sourcePoint" />
            <mxPoint x="2870" y="510" as="targetPoint" />
            <Array as="points">
              <mxPoint x="2870" y="365" />
            </Array>
          </mxGeometry>
        </mxCell>
        <mxCell id="e0liQvdCcjfhZNM5xDvp-357" value="" style="shape=link;html=1;rounded=0;exitX=1;exitY=0;exitDx=0;exitDy=0;strokeColor=#000000;strokeWidth=2;fontSize=20;fontStyle=1" edge="1" parent="1">
          <mxGeometry width="100" relative="1" as="geometry">
            <mxPoint x="2785" y="214" as="sourcePoint" />
            <mxPoint x="2870" y="359" as="targetPoint" />
            <Array as="points">
              <mxPoint x="2870" y="214" />
            </Array>
          </mxGeometry>
        </mxCell>
        <mxCell id="e0liQvdCcjfhZNM5xDvp-358" value="" style="shape=link;html=1;rounded=0;exitX=1;exitY=0;exitDx=0;exitDy=0;strokeColor=#000000;strokeWidth=2;fontSize=20;fontStyle=1" edge="1" parent="1">
          <mxGeometry width="100" relative="1" as="geometry">
            <mxPoint x="2785" y="806" as="sourcePoint" />
            <mxPoint x="2870" y="661" as="targetPoint" />
            <Array as="points">
              <mxPoint x="2870" y="806" />
            </Array>
          </mxGeometry>
        </mxCell>
        <mxCell id="e0liQvdCcjfhZNM5xDvp-359" value="" style="shape=link;html=1;rounded=0;exitX=1;exitY=0;exitDx=0;exitDy=0;strokeColor=#000000;strokeWidth=2;fontSize=20;fontStyle=1" edge="1" parent="1">
          <mxGeometry width="100" relative="1" as="geometry">
            <mxPoint x="2785" y="655" as="sourcePoint" />
            <mxPoint x="2870" y="510" as="targetPoint" />
            <Array as="points">
              <mxPoint x="2870" y="655" />
            </Array>
          </mxGeometry>
        </mxCell>
        <mxCell id="e0liQvdCcjfhZNM5xDvp-360" value="&lt;span style=&quot;font-size: 20px;&quot;&gt;Averaging The &lt;br&gt;Accuracy&lt;br&gt;&lt;/span&gt;" style="text;html=1;align=center;verticalAlign=middle;resizable=0;points=[];autosize=1;strokeColor=none;fillColor=none;strokeWidth=2;" vertex="1" parent="1">
          <mxGeometry x="2820" y="140" width="150" height="60" as="geometry" />
        </mxCell>
        <mxCell id="e0liQvdCcjfhZNM5xDvp-362" value="" style="endArrow=classic;html=1;rounded=0;strokeWidth=2;fontSize=20;fontStyle=1" edge="1" parent="1">
          <mxGeometry width="50" height="50" relative="1" as="geometry">
            <mxPoint x="3050" y="618.46" as="sourcePoint" />
            <mxPoint x="3290" y="618.46" as="targetPoint" />
          </mxGeometry>
        </mxCell>
        <mxCell id="e0liQvdCcjfhZNM5xDvp-363" value="" style="endArrow=classic;html=1;rounded=0;strokeWidth=2;fontSize=20;fontStyle=1" edge="1" parent="1">
          <mxGeometry width="50" height="50" relative="1" as="geometry">
            <mxPoint x="3050" y="618.46" as="sourcePoint" />
            <mxPoint x="3050" y="378.46" as="targetPoint" />
          </mxGeometry>
        </mxCell>
        <mxCell id="e0liQvdCcjfhZNM5xDvp-364" value="" style="curved=1;endArrow=none;html=1;rounded=0;endFill=0;strokeWidth=2;fontSize=20;fontStyle=1" edge="1" parent="1">
          <mxGeometry width="50" height="50" relative="1" as="geometry">
            <mxPoint x="3050" y="568.46" as="sourcePoint" />
            <mxPoint x="3290" y="448.46" as="targetPoint" />
            <Array as="points">
              <mxPoint x="3100" y="568.46" />
              <mxPoint x="3080" y="518.46" />
              <mxPoint x="3180" y="498.46" />
              <mxPoint x="3210" y="408.46" />
            </Array>
          </mxGeometry>
        </mxCell>
        <mxCell id="e0liQvdCcjfhZNM5xDvp-366" value="&lt;font style=&quot;font-size: 40px;&quot;&gt;Average Training\&lt;br style=&quot;border-color: var(--border-color);&quot;&gt;Testing Accuracy&lt;br&gt;&lt;/font&gt;" style="text;html=1;align=center;verticalAlign=middle;resizable=0;points=[];autosize=1;strokeColor=none;fillColor=none;strokeWidth=2;" vertex="1" parent="1">
          <mxGeometry x="3011" y="249" width="340" height="110" as="geometry" />
        </mxCell>
        <mxCell id="e0liQvdCcjfhZNM5xDvp-367" value="" style="shape=flexArrow;endArrow=classic;html=1;rounded=0;fillColor=#363636;strokeWidth=2;fontSize=20;fontStyle=1;exitX=0;exitY=1;exitDx=0;exitDy=0;" edge="1" parent="1" source="e0liQvdCcjfhZNM5xDvp-343">
          <mxGeometry width="50" height="50" relative="1" as="geometry">
            <mxPoint x="2610" y="890" as="sourcePoint" />
            <mxPoint x="3010" y="980" as="targetPoint" />
            <Array as="points">
              <mxPoint x="2605" y="980" />
            </Array>
          </mxGeometry>
        </mxCell>
        <mxCell id="e0liQvdCcjfhZNM5xDvp-368" value="" style="endArrow=classic;html=1;rounded=0;strokeWidth=2;fontSize=20;fontStyle=1" edge="1" parent="1">
          <mxGeometry width="50" height="50" relative="1" as="geometry">
            <mxPoint x="3061" y="1090" as="sourcePoint" />
            <mxPoint x="3301" y="1090" as="targetPoint" />
          </mxGeometry>
        </mxCell>
        <mxCell id="e0liQvdCcjfhZNM5xDvp-369" value="" style="endArrow=classic;html=1;rounded=0;strokeWidth=2;fontSize=20;fontStyle=1" edge="1" parent="1">
          <mxGeometry width="50" height="50" relative="1" as="geometry">
            <mxPoint x="3061" y="1090" as="sourcePoint" />
            <mxPoint x="3061" y="850" as="targetPoint" />
          </mxGeometry>
        </mxCell>
        <mxCell id="e0liQvdCcjfhZNM5xDvp-370" value="" style="rounded=0;whiteSpace=wrap;html=1;fillColor=#333333;strokeWidth=2;fontSize=20;fontStyle=1" vertex="1" parent="1">
          <mxGeometry x="3060" y="890" width="40" height="20" as="geometry" />
        </mxCell>
        <mxCell id="e0liQvdCcjfhZNM5xDvp-371" value="" style="rounded=0;whiteSpace=wrap;html=1;fillColor=#333333;strokeWidth=2;fontSize=20;fontStyle=1" vertex="1" parent="1">
          <mxGeometry x="3060" y="940" width="190" height="20" as="geometry" />
        </mxCell>
        <mxCell id="e0liQvdCcjfhZNM5xDvp-372" value="" style="rounded=0;whiteSpace=wrap;html=1;fillColor=#333333;strokeWidth=2;fontSize=20;fontStyle=1" vertex="1" parent="1">
          <mxGeometry x="3060" y="990" width="90" height="20" as="geometry" />
        </mxCell>
        <mxCell id="e0liQvdCcjfhZNM5xDvp-373" value="" style="rounded=0;whiteSpace=wrap;html=1;fillColor=#333333;strokeWidth=2;fontSize=20;fontStyle=1" vertex="1" parent="1">
          <mxGeometry x="3060" y="1040" width="130" height="20" as="geometry" />
        </mxCell>
        <mxCell id="e0liQvdCcjfhZNM5xDvp-375" value="A1" style="text;html=1;align=center;verticalAlign=middle;resizable=0;points=[];autosize=1;strokeColor=none;fillColor=none;strokeWidth=2;fontSize=20;fontStyle=1" vertex="1" parent="1">
          <mxGeometry x="3015" y="880" width="50" height="40" as="geometry" />
        </mxCell>
        <mxCell id="e0liQvdCcjfhZNM5xDvp-377" value="A2" style="text;html=1;align=center;verticalAlign=middle;resizable=0;points=[];autosize=1;strokeColor=none;fillColor=none;strokeWidth=2;fontSize=20;fontStyle=1" vertex="1" parent="1">
          <mxGeometry x="3015" y="930" width="50" height="40" as="geometry" />
        </mxCell>
        <mxCell id="e0liQvdCcjfhZNM5xDvp-378" value="A3" style="text;html=1;align=center;verticalAlign=middle;resizable=0;points=[];autosize=1;strokeColor=none;fillColor=none;strokeWidth=2;fontSize=20;fontStyle=1" vertex="1" parent="1">
          <mxGeometry x="3015" y="980" width="50" height="40" as="geometry" />
        </mxCell>
        <mxCell id="e0liQvdCcjfhZNM5xDvp-379" value="A4" style="text;html=1;align=center;verticalAlign=middle;resizable=0;points=[];autosize=1;strokeColor=none;fillColor=none;strokeWidth=2;fontSize=20;fontStyle=1" vertex="1" parent="1">
          <mxGeometry x="3015" y="1030" width="50" height="40" as="geometry" />
        </mxCell>
        <mxCell id="e0liQvdCcjfhZNM5xDvp-380" value="&lt;font style=&quot;font-size: 40px;&quot;&gt;Feature Importance&lt;br&gt;&lt;/font&gt;" style="text;html=1;align=center;verticalAlign=middle;resizable=0;points=[];autosize=1;strokeColor=none;fillColor=none;strokeWidth=2;" vertex="1" parent="1">
          <mxGeometry x="2996" y="770" width="370" height="60" as="geometry" />
        </mxCell>
        <mxCell id="e0liQvdCcjfhZNM5xDvp-381" value="&lt;span style=&quot;font-size: 20px;&quot;&gt;Averaging The&lt;br&gt;Feature Importance&lt;br&gt;&lt;/span&gt;" style="text;html=1;align=center;verticalAlign=middle;resizable=0;points=[];autosize=1;strokeColor=none;fillColor=none;strokeWidth=2;" vertex="1" parent="1">
          <mxGeometry x="2695" y="1000" width="200" height="60" as="geometry" />
        </mxCell>
        <mxCell id="e0liQvdCcjfhZNM5xDvp-386" value="&lt;font style=&quot;font-size: 40px;&quot;&gt;Private with Privacy Budget&lt;br&gt;&lt;/font&gt;" style="text;html=1;align=center;verticalAlign=middle;resizable=0;points=[];autosize=1;strokeColor=none;fillColor=none;strokeWidth=2;fontStyle=2" vertex="1" parent="1">
          <mxGeometry x="1855" y="-120" width="510" height="60" as="geometry" />
        </mxCell>
        <mxCell id="e0liQvdCcjfhZNM5xDvp-387" value="" style="rounded=0;whiteSpace=wrap;html=1;strokeWidth=2;fontSize=20;fontStyle=1" vertex="1" parent="1">
          <mxGeometry x="1256" y="250" width="60" height="60" as="geometry" />
        </mxCell>
        <mxCell id="e0liQvdCcjfhZNM5xDvp-388" value="" style="rounded=0;whiteSpace=wrap;html=1;strokeWidth=2;fontSize=20;fontStyle=1" vertex="1" parent="1">
          <mxGeometry x="1316" y="250" width="60" height="60" as="geometry" />
        </mxCell>
        <mxCell id="e0liQvdCcjfhZNM5xDvp-389" value="" style="rounded=0;whiteSpace=wrap;html=1;strokeWidth=2;fontSize=20;fontStyle=1" vertex="1" parent="1">
          <mxGeometry x="1376" y="250" width="60" height="60" as="geometry" />
        </mxCell>
        <mxCell id="e0liQvdCcjfhZNM5xDvp-390" value="" style="rounded=0;whiteSpace=wrap;html=1;strokeWidth=2;fontSize=20;fontStyle=1" vertex="1" parent="1">
          <mxGeometry x="1436" y="250" width="60" height="60" as="geometry" />
        </mxCell>
        <mxCell id="e0liQvdCcjfhZNM5xDvp-391" value="" style="rounded=0;whiteSpace=wrap;html=1;strokeWidth=2;fontSize=20;fontStyle=1" vertex="1" parent="1">
          <mxGeometry x="1496" y="250" width="60" height="60" as="geometry" />
        </mxCell>
        <mxCell id="e0liQvdCcjfhZNM5xDvp-392" value="" style="rounded=0;whiteSpace=wrap;html=1;strokeWidth=2;fontSize=20;fontStyle=1" vertex="1" parent="1">
          <mxGeometry x="1556" y="250" width="60" height="60" as="geometry" />
        </mxCell>
        <mxCell id="e0liQvdCcjfhZNM5xDvp-393" value="A1" style="text;html=1;align=center;verticalAlign=middle;resizable=0;points=[];autosize=1;strokeColor=none;fillColor=none;strokeWidth=2;fontSize=20;fontStyle=1" vertex="1" parent="1">
          <mxGeometry x="1261" y="215" width="50" height="40" as="geometry" />
        </mxCell>
        <mxCell id="e0liQvdCcjfhZNM5xDvp-394" value="A2" style="text;html=1;align=center;verticalAlign=middle;resizable=0;points=[];autosize=1;strokeColor=none;fillColor=none;strokeWidth=2;fontSize=20;fontStyle=1" vertex="1" parent="1">
          <mxGeometry x="1321" y="215" width="50" height="40" as="geometry" />
        </mxCell>
        <mxCell id="e0liQvdCcjfhZNM5xDvp-395" value="A3" style="text;html=1;align=center;verticalAlign=middle;resizable=0;points=[];autosize=1;strokeColor=none;fillColor=none;strokeWidth=2;fontSize=20;fontStyle=1" vertex="1" parent="1">
          <mxGeometry x="1381" y="215" width="50" height="40" as="geometry" />
        </mxCell>
        <mxCell id="e0liQvdCcjfhZNM5xDvp-396" value="A4" style="text;html=1;align=center;verticalAlign=middle;resizable=0;points=[];autosize=1;strokeColor=none;fillColor=none;strokeWidth=2;fontSize=20;fontStyle=1" vertex="1" parent="1">
          <mxGeometry x="1441" y="215" width="50" height="40" as="geometry" />
        </mxCell>
        <mxCell id="e0liQvdCcjfhZNM5xDvp-397" value="An" style="text;html=1;align=center;verticalAlign=middle;resizable=0;points=[];autosize=1;strokeColor=none;fillColor=none;strokeWidth=2;fontSize=20;fontStyle=1" vertex="1" parent="1">
          <mxGeometry x="1561" y="215" width="50" height="40" as="geometry" />
        </mxCell>
        <mxCell id="e0liQvdCcjfhZNM5xDvp-398" value="..." style="text;html=1;align=center;verticalAlign=middle;resizable=0;points=[];autosize=1;strokeColor=none;fillColor=none;strokeWidth=2;fontSize=20;fontStyle=1" vertex="1" parent="1">
          <mxGeometry x="1506" y="215" width="40" height="40" as="geometry" />
        </mxCell>
        <mxCell id="e0liQvdCcjfhZNM5xDvp-399" value="" style="rounded=0;whiteSpace=wrap;html=1;strokeWidth=2;fontSize=20;fontStyle=1" vertex="1" parent="1">
          <mxGeometry x="1256" y="330" width="60" height="60" as="geometry" />
        </mxCell>
        <mxCell id="e0liQvdCcjfhZNM5xDvp-400" value="" style="rounded=0;whiteSpace=wrap;html=1;strokeWidth=2;fontSize=20;fontStyle=1" vertex="1" parent="1">
          <mxGeometry x="1316" y="330" width="60" height="60" as="geometry" />
        </mxCell>
        <mxCell id="e0liQvdCcjfhZNM5xDvp-401" value="" style="rounded=0;whiteSpace=wrap;html=1;strokeWidth=2;fontSize=20;fontStyle=1" vertex="1" parent="1">
          <mxGeometry x="1376" y="330" width="60" height="60" as="geometry" />
        </mxCell>
        <mxCell id="e0liQvdCcjfhZNM5xDvp-402" value="" style="rounded=0;whiteSpace=wrap;html=1;strokeWidth=2;fontSize=20;fontStyle=1" vertex="1" parent="1">
          <mxGeometry x="1436" y="330" width="60" height="60" as="geometry" />
        </mxCell>
        <mxCell id="e0liQvdCcjfhZNM5xDvp-403" value="" style="rounded=0;whiteSpace=wrap;html=1;strokeWidth=2;fontSize=20;fontStyle=1" vertex="1" parent="1">
          <mxGeometry x="1496" y="330" width="60" height="60" as="geometry" />
        </mxCell>
        <mxCell id="e0liQvdCcjfhZNM5xDvp-404" value="" style="rounded=0;whiteSpace=wrap;html=1;strokeWidth=2;fontSize=20;fontStyle=1" vertex="1" parent="1">
          <mxGeometry x="1556" y="330" width="60" height="60" as="geometry" />
        </mxCell>
        <mxCell id="e0liQvdCcjfhZNM5xDvp-405" value="U1" style="text;html=1;align=center;verticalAlign=middle;resizable=0;points=[];autosize=1;strokeColor=none;fillColor=none;strokeWidth=2;fontSize=20;fontStyle=1" vertex="1" parent="1">
          <mxGeometry x="1211" y="260" width="50" height="40" as="geometry" />
        </mxCell>
        <mxCell id="e0liQvdCcjfhZNM5xDvp-406" value="U2" style="text;html=1;align=center;verticalAlign=middle;resizable=0;points=[];autosize=1;strokeColor=none;fillColor=none;strokeWidth=2;fontSize=20;fontStyle=1" vertex="1" parent="1">
          <mxGeometry x="1211" y="340" width="50" height="40" as="geometry" />
        </mxCell>
        <mxCell id="e0liQvdCcjfhZNM5xDvp-407" value="" style="rounded=0;whiteSpace=wrap;html=1;strokeWidth=2;fontSize=20;fontStyle=1" vertex="1" parent="1">
          <mxGeometry x="1256" y="410" width="60" height="60" as="geometry" />
        </mxCell>
        <mxCell id="e0liQvdCcjfhZNM5xDvp-408" value="" style="rounded=0;whiteSpace=wrap;html=1;strokeWidth=2;fontSize=20;fontStyle=1" vertex="1" parent="1">
          <mxGeometry x="1316" y="410" width="60" height="60" as="geometry" />
        </mxCell>
        <mxCell id="e0liQvdCcjfhZNM5xDvp-409" value="" style="rounded=0;whiteSpace=wrap;html=1;strokeWidth=2;fontSize=20;fontStyle=1" vertex="1" parent="1">
          <mxGeometry x="1376" y="410" width="60" height="60" as="geometry" />
        </mxCell>
        <mxCell id="e0liQvdCcjfhZNM5xDvp-410" value="" style="rounded=0;whiteSpace=wrap;html=1;strokeWidth=2;fontSize=20;fontStyle=1" vertex="1" parent="1">
          <mxGeometry x="1436" y="410" width="60" height="60" as="geometry" />
        </mxCell>
        <mxCell id="e0liQvdCcjfhZNM5xDvp-411" value="" style="rounded=0;whiteSpace=wrap;html=1;strokeWidth=2;fontSize=20;fontStyle=1" vertex="1" parent="1">
          <mxGeometry x="1496" y="410" width="60" height="60" as="geometry" />
        </mxCell>
        <mxCell id="e0liQvdCcjfhZNM5xDvp-412" value="" style="rounded=0;whiteSpace=wrap;html=1;strokeWidth=2;fontSize=20;fontStyle=1" vertex="1" parent="1">
          <mxGeometry x="1556" y="410" width="60" height="60" as="geometry" />
        </mxCell>
        <mxCell id="e0liQvdCcjfhZNM5xDvp-413" value="U3" style="text;html=1;align=center;verticalAlign=middle;resizable=0;points=[];autosize=1;strokeColor=none;fillColor=none;strokeWidth=2;fontSize=20;fontStyle=1" vertex="1" parent="1">
          <mxGeometry x="1211" y="420" width="50" height="40" as="geometry" />
        </mxCell>
        <mxCell id="e0liQvdCcjfhZNM5xDvp-414" value="" style="rounded=0;whiteSpace=wrap;html=1;strokeWidth=2;fontSize=20;fontStyle=1" vertex="1" parent="1">
          <mxGeometry x="1256" y="490" width="60" height="60" as="geometry" />
        </mxCell>
        <mxCell id="e0liQvdCcjfhZNM5xDvp-415" value="" style="rounded=0;whiteSpace=wrap;html=1;strokeWidth=2;fontSize=20;fontStyle=1" vertex="1" parent="1">
          <mxGeometry x="1316" y="490" width="60" height="60" as="geometry" />
        </mxCell>
        <mxCell id="e0liQvdCcjfhZNM5xDvp-416" value="" style="rounded=0;whiteSpace=wrap;html=1;strokeWidth=2;fontSize=20;fontStyle=1" vertex="1" parent="1">
          <mxGeometry x="1376" y="490" width="60" height="60" as="geometry" />
        </mxCell>
        <mxCell id="e0liQvdCcjfhZNM5xDvp-417" value="" style="rounded=0;whiteSpace=wrap;html=1;strokeWidth=2;fontSize=20;fontStyle=1" vertex="1" parent="1">
          <mxGeometry x="1436" y="490" width="60" height="60" as="geometry" />
        </mxCell>
        <mxCell id="e0liQvdCcjfhZNM5xDvp-418" value="" style="rounded=0;whiteSpace=wrap;html=1;strokeWidth=2;fontSize=20;fontStyle=1" vertex="1" parent="1">
          <mxGeometry x="1496" y="490" width="60" height="60" as="geometry" />
        </mxCell>
        <mxCell id="e0liQvdCcjfhZNM5xDvp-419" value="" style="rounded=0;whiteSpace=wrap;html=1;strokeWidth=2;fontSize=20;fontStyle=1" vertex="1" parent="1">
          <mxGeometry x="1556" y="490" width="60" height="60" as="geometry" />
        </mxCell>
        <mxCell id="e0liQvdCcjfhZNM5xDvp-420" value="" style="rounded=0;whiteSpace=wrap;html=1;strokeWidth=2;fontSize=20;fontStyle=1" vertex="1" parent="1">
          <mxGeometry x="1256" y="570" width="60" height="60" as="geometry" />
        </mxCell>
        <mxCell id="e0liQvdCcjfhZNM5xDvp-421" value="" style="rounded=0;whiteSpace=wrap;html=1;strokeWidth=2;fontSize=20;fontStyle=1" vertex="1" parent="1">
          <mxGeometry x="1316" y="570" width="60" height="60" as="geometry" />
        </mxCell>
        <mxCell id="e0liQvdCcjfhZNM5xDvp-422" value="" style="rounded=0;whiteSpace=wrap;html=1;strokeWidth=2;fontSize=20;fontStyle=1" vertex="1" parent="1">
          <mxGeometry x="1376" y="570" width="60" height="60" as="geometry" />
        </mxCell>
        <mxCell id="e0liQvdCcjfhZNM5xDvp-423" value="" style="rounded=0;whiteSpace=wrap;html=1;strokeWidth=2;fontSize=20;fontStyle=1" vertex="1" parent="1">
          <mxGeometry x="1436" y="570" width="60" height="60" as="geometry" />
        </mxCell>
        <mxCell id="e0liQvdCcjfhZNM5xDvp-424" value="" style="rounded=0;whiteSpace=wrap;html=1;strokeWidth=2;fontSize=20;fontStyle=1" vertex="1" parent="1">
          <mxGeometry x="1496" y="570" width="60" height="60" as="geometry" />
        </mxCell>
        <mxCell id="e0liQvdCcjfhZNM5xDvp-425" value="" style="rounded=0;whiteSpace=wrap;html=1;strokeWidth=2;fontSize=20;fontStyle=1" vertex="1" parent="1">
          <mxGeometry x="1556" y="570" width="60" height="60" as="geometry" />
        </mxCell>
        <mxCell id="e0liQvdCcjfhZNM5xDvp-426" value=".&lt;br style=&quot;font-size: 20px;&quot;&gt;.&lt;br style=&quot;font-size: 20px;&quot;&gt;.&lt;br style=&quot;font-size: 20px;&quot;&gt;.&lt;br style=&quot;font-size: 20px;&quot;&gt;.&lt;br style=&quot;font-size: 20px;&quot;&gt;.&lt;br style=&quot;font-size: 20px;&quot;&gt;." style="text;html=1;align=center;verticalAlign=middle;resizable=0;points=[];autosize=1;strokeColor=none;fillColor=none;strokeWidth=2;fontSize=20;fontStyle=1" vertex="1" parent="1">
          <mxGeometry x="1221" y="475" width="30" height="180" as="geometry" />
        </mxCell>
        <mxCell id="e0liQvdCcjfhZNM5xDvp-427" value="" style="rounded=0;whiteSpace=wrap;html=1;strokeWidth=2;fontSize=20;fontStyle=1" vertex="1" parent="1">
          <mxGeometry x="1256" y="650" width="60" height="60" as="geometry" />
        </mxCell>
        <mxCell id="e0liQvdCcjfhZNM5xDvp-428" value="" style="rounded=0;whiteSpace=wrap;html=1;strokeWidth=2;fontSize=20;fontStyle=1" vertex="1" parent="1">
          <mxGeometry x="1316" y="650" width="60" height="60" as="geometry" />
        </mxCell>
        <mxCell id="e0liQvdCcjfhZNM5xDvp-429" value="" style="rounded=0;whiteSpace=wrap;html=1;strokeWidth=2;fontSize=20;fontStyle=1" vertex="1" parent="1">
          <mxGeometry x="1376" y="650" width="60" height="60" as="geometry" />
        </mxCell>
        <mxCell id="e0liQvdCcjfhZNM5xDvp-430" value="" style="rounded=0;whiteSpace=wrap;html=1;strokeWidth=2;fontSize=20;fontStyle=1" vertex="1" parent="1">
          <mxGeometry x="1436" y="650" width="60" height="60" as="geometry" />
        </mxCell>
        <mxCell id="e0liQvdCcjfhZNM5xDvp-431" value="" style="rounded=0;whiteSpace=wrap;html=1;strokeWidth=2;fontSize=20;fontStyle=1" vertex="1" parent="1">
          <mxGeometry x="1496" y="650" width="60" height="60" as="geometry" />
        </mxCell>
        <mxCell id="e0liQvdCcjfhZNM5xDvp-432" value="" style="rounded=0;whiteSpace=wrap;html=1;strokeWidth=2;fontSize=20;fontStyle=1" vertex="1" parent="1">
          <mxGeometry x="1556" y="650" width="60" height="60" as="geometry" />
        </mxCell>
        <mxCell id="e0liQvdCcjfhZNM5xDvp-433" value="Un" style="text;html=1;align=center;verticalAlign=middle;resizable=0;points=[];autosize=1;strokeColor=none;fillColor=none;strokeWidth=2;fontSize=20;fontStyle=1" vertex="1" parent="1">
          <mxGeometry x="1211" y="660" width="50" height="40" as="geometry" />
        </mxCell>
        <mxCell id="e0liQvdCcjfhZNM5xDvp-434" value="&lt;font style=&quot;font-size: 40px;&quot;&gt;Aggregated &lt;br&gt;Data (Server)&lt;br&gt;&lt;/font&gt;" style="text;html=1;align=center;verticalAlign=middle;resizable=0;points=[];autosize=1;strokeColor=none;fillColor=none;strokeWidth=2;" vertex="1" parent="1">
          <mxGeometry x="1301" y="105" width="260" height="110" as="geometry" />
        </mxCell>
        <mxCell id="e0liQvdCcjfhZNM5xDvp-435" value="" style="shape=flexArrow;endArrow=classic;html=1;rounded=0;fillColor=#000000;strokeWidth=2;fontSize=20;fontStyle=1" edge="1" parent="1">
          <mxGeometry width="50" height="50" relative="1" as="geometry">
            <mxPoint x="1086" y="444" as="sourcePoint" />
            <mxPoint x="1206" y="444" as="targetPoint" />
          </mxGeometry>
        </mxCell>
        <mxCell id="e0liQvdCcjfhZNM5xDvp-436" value="&lt;span style=&quot;font-size: 20px;&quot;&gt;Data Sent to &lt;br&gt;Server For &lt;br&gt;Training&lt;/span&gt;" style="text;html=1;align=center;verticalAlign=middle;resizable=0;points=[];autosize=1;strokeColor=none;fillColor=none;strokeWidth=2;" vertex="1" parent="1">
          <mxGeometry x="1081" y="344" width="130" height="90" as="geometry" />
        </mxCell>
        <mxCell id="pWrEpbgViYqPpIN0cHNU-1" value="&lt;span style=&quot;color: rgb(0, 0, 0); font-family: Helvetica; font-size: 40px; font-variant-ligatures: normal; font-variant-caps: normal; font-weight: 400; letter-spacing: normal; orphans: 2; text-align: center; text-indent: 0px; text-transform: none; widows: 2; word-spacing: 0px; -webkit-text-stroke-width: 0px; background-color: rgb(251, 251, 251); text-decoration-thickness: initial; text-decoration-style: initial; text-decoration-color: initial; float: none; display: inline !important;&quot;&gt;$$\epsilon$$&lt;/span&gt;" style="text;whiteSpace=wrap;html=1;fontSize=40;fontStyle=2;spacing=2;" vertex="1" parent="1">
          <mxGeometry x="2365" y="-122" width="100" height="40" as="geometry" />
        </mxCell>
        <mxCell id="bA6Z128UuXlaUtjKn_8Y-2" value="&lt;font style=&quot;font-size: 40px;&quot;&gt;Process Local to User Device&lt;br&gt;&lt;/font&gt;" style="text;html=1;align=center;verticalAlign=middle;resizable=0;points=[];autosize=1;strokeColor=none;fillColor=none;strokeWidth=2;fontStyle=2" vertex="1" parent="1">
          <mxGeometry x="75" y="20" width="550" height="60" as="geometry" />
        </mxCell>
      </root>
    </mxGraphModel>
  </diagram>
  <diagram id="S0WC9x43lXkXoGFVW64Q" name="Figure 2">
    <mxGraphModel dx="2440" dy="1340" grid="1" gridSize="10" guides="1" tooltips="1" connect="1" arrows="1" fold="1" page="1" pageScale="1" pageWidth="827" pageHeight="1169" math="1" shadow="0">
      <root>
        <mxCell id="0" />
        <mxCell id="1" parent="0" />
        <mxCell id="2w8uLMMJSmRgtasxhLn--1" value="&lt;font style=&quot;font-size: 20px;&quot;&gt;Private with Privacy Budget Epsilon Section from Figure 1&lt;/font&gt;" style="rounded=1;whiteSpace=wrap;html=1;" vertex="1" parent="1">
          <mxGeometry x="660" y="230" width="203" height="90" as="geometry" />
        </mxCell>
        <mxCell id="zO6Guff0xEjTR-vVG68g-1" value="" style="rounded=0;whiteSpace=wrap;html=1;strokeWidth=2;fontSize=20;fontStyle=1" vertex="1" parent="1">
          <mxGeometry x="110" y="240" width="60" height="60" as="geometry" />
        </mxCell>
        <mxCell id="zO6Guff0xEjTR-vVG68g-2" value="" style="rounded=0;whiteSpace=wrap;html=1;strokeWidth=2;fontSize=20;fontStyle=1" vertex="1" parent="1">
          <mxGeometry x="170" y="240" width="60" height="60" as="geometry" />
        </mxCell>
        <mxCell id="zO6Guff0xEjTR-vVG68g-3" value="" style="rounded=0;whiteSpace=wrap;html=1;strokeWidth=2;fontSize=20;fontStyle=1" vertex="1" parent="1">
          <mxGeometry x="230" y="240" width="60" height="60" as="geometry" />
        </mxCell>
        <mxCell id="zO6Guff0xEjTR-vVG68g-4" value="" style="rounded=0;whiteSpace=wrap;html=1;strokeWidth=2;fontSize=20;fontStyle=1" vertex="1" parent="1">
          <mxGeometry x="290" y="240" width="60" height="60" as="geometry" />
        </mxCell>
        <mxCell id="zO6Guff0xEjTR-vVG68g-5" value="" style="rounded=0;whiteSpace=wrap;html=1;strokeWidth=2;fontSize=20;fontStyle=1" vertex="1" parent="1">
          <mxGeometry x="350" y="240" width="60" height="60" as="geometry" />
        </mxCell>
        <mxCell id="zO6Guff0xEjTR-vVG68g-6" value="" style="rounded=0;whiteSpace=wrap;html=1;strokeWidth=2;fontSize=20;fontStyle=1" vertex="1" parent="1">
          <mxGeometry x="410" y="240" width="60" height="60" as="geometry" />
        </mxCell>
        <mxCell id="zO6Guff0xEjTR-vVG68g-7" value="A1" style="text;html=1;align=center;verticalAlign=middle;resizable=0;points=[];autosize=1;strokeColor=none;fillColor=none;strokeWidth=2;fontSize=20;fontStyle=1" vertex="1" parent="1">
          <mxGeometry x="115" y="205" width="50" height="40" as="geometry" />
        </mxCell>
        <mxCell id="zO6Guff0xEjTR-vVG68g-8" value="A2" style="text;html=1;align=center;verticalAlign=middle;resizable=0;points=[];autosize=1;strokeColor=none;fillColor=none;strokeWidth=2;fontSize=20;fontStyle=1" vertex="1" parent="1">
          <mxGeometry x="175" y="205" width="50" height="40" as="geometry" />
        </mxCell>
        <mxCell id="zO6Guff0xEjTR-vVG68g-9" value="A3" style="text;html=1;align=center;verticalAlign=middle;resizable=0;points=[];autosize=1;strokeColor=none;fillColor=none;strokeWidth=2;fontSize=20;fontStyle=1" vertex="1" parent="1">
          <mxGeometry x="235" y="205" width="50" height="40" as="geometry" />
        </mxCell>
        <mxCell id="zO6Guff0xEjTR-vVG68g-10" value="A4" style="text;html=1;align=center;verticalAlign=middle;resizable=0;points=[];autosize=1;strokeColor=none;fillColor=none;strokeWidth=2;fontSize=20;fontStyle=1" vertex="1" parent="1">
          <mxGeometry x="295" y="205" width="50" height="40" as="geometry" />
        </mxCell>
        <mxCell id="zO6Guff0xEjTR-vVG68g-11" value="An" style="text;html=1;align=center;verticalAlign=middle;resizable=0;points=[];autosize=1;strokeColor=none;fillColor=none;strokeWidth=2;fontSize=20;fontStyle=1" vertex="1" parent="1">
          <mxGeometry x="415" y="205" width="50" height="40" as="geometry" />
        </mxCell>
        <mxCell id="zO6Guff0xEjTR-vVG68g-12" value="..." style="text;html=1;align=center;verticalAlign=middle;resizable=0;points=[];autosize=1;strokeColor=none;fillColor=none;strokeWidth=2;fontSize=20;fontStyle=1" vertex="1" parent="1">
          <mxGeometry x="360" y="205" width="40" height="40" as="geometry" />
        </mxCell>
        <mxCell id="zO6Guff0xEjTR-vVG68g-13" value="" style="rounded=0;whiteSpace=wrap;html=1;strokeWidth=2;fontSize=20;fontStyle=1" vertex="1" parent="1">
          <mxGeometry x="110" y="320" width="60" height="60" as="geometry" />
        </mxCell>
        <mxCell id="zO6Guff0xEjTR-vVG68g-14" value="" style="rounded=0;whiteSpace=wrap;html=1;strokeWidth=2;fontSize=20;fontStyle=1" vertex="1" parent="1">
          <mxGeometry x="170" y="320" width="60" height="60" as="geometry" />
        </mxCell>
        <mxCell id="zO6Guff0xEjTR-vVG68g-15" value="" style="rounded=0;whiteSpace=wrap;html=1;strokeWidth=2;fontSize=20;fontStyle=1" vertex="1" parent="1">
          <mxGeometry x="230" y="320" width="60" height="60" as="geometry" />
        </mxCell>
        <mxCell id="zO6Guff0xEjTR-vVG68g-16" value="" style="rounded=0;whiteSpace=wrap;html=1;strokeWidth=2;fontSize=20;fontStyle=1" vertex="1" parent="1">
          <mxGeometry x="290" y="320" width="60" height="60" as="geometry" />
        </mxCell>
        <mxCell id="zO6Guff0xEjTR-vVG68g-17" value="" style="rounded=0;whiteSpace=wrap;html=1;strokeWidth=2;fontSize=20;fontStyle=1" vertex="1" parent="1">
          <mxGeometry x="350" y="320" width="60" height="60" as="geometry" />
        </mxCell>
        <mxCell id="zO6Guff0xEjTR-vVG68g-18" value="" style="rounded=0;whiteSpace=wrap;html=1;strokeWidth=2;fontSize=20;fontStyle=1" vertex="1" parent="1">
          <mxGeometry x="410" y="320" width="60" height="60" as="geometry" />
        </mxCell>
        <mxCell id="zO6Guff0xEjTR-vVG68g-19" value="U1" style="text;html=1;align=center;verticalAlign=middle;resizable=0;points=[];autosize=1;strokeColor=none;fillColor=none;strokeWidth=2;fontSize=20;fontStyle=1" vertex="1" parent="1">
          <mxGeometry x="65" y="250" width="50" height="40" as="geometry" />
        </mxCell>
        <mxCell id="zO6Guff0xEjTR-vVG68g-20" value="U2" style="text;html=1;align=center;verticalAlign=middle;resizable=0;points=[];autosize=1;strokeColor=none;fillColor=none;strokeWidth=2;fontSize=20;fontStyle=1" vertex="1" parent="1">
          <mxGeometry x="65" y="330" width="50" height="40" as="geometry" />
        </mxCell>
        <mxCell id="zO6Guff0xEjTR-vVG68g-21" value="" style="rounded=0;whiteSpace=wrap;html=1;strokeWidth=2;fontSize=20;fontStyle=1" vertex="1" parent="1">
          <mxGeometry x="110" y="400" width="60" height="60" as="geometry" />
        </mxCell>
        <mxCell id="zO6Guff0xEjTR-vVG68g-22" value="" style="rounded=0;whiteSpace=wrap;html=1;strokeWidth=2;fontSize=20;fontStyle=1" vertex="1" parent="1">
          <mxGeometry x="170" y="400" width="60" height="60" as="geometry" />
        </mxCell>
        <mxCell id="zO6Guff0xEjTR-vVG68g-23" value="" style="rounded=0;whiteSpace=wrap;html=1;strokeWidth=2;fontSize=20;fontStyle=1" vertex="1" parent="1">
          <mxGeometry x="230" y="400" width="60" height="60" as="geometry" />
        </mxCell>
        <mxCell id="zO6Guff0xEjTR-vVG68g-24" value="" style="rounded=0;whiteSpace=wrap;html=1;strokeWidth=2;fontSize=20;fontStyle=1" vertex="1" parent="1">
          <mxGeometry x="290" y="400" width="60" height="60" as="geometry" />
        </mxCell>
        <mxCell id="zO6Guff0xEjTR-vVG68g-25" value="" style="rounded=0;whiteSpace=wrap;html=1;strokeWidth=2;fontSize=20;fontStyle=1" vertex="1" parent="1">
          <mxGeometry x="350" y="400" width="60" height="60" as="geometry" />
        </mxCell>
        <mxCell id="zO6Guff0xEjTR-vVG68g-26" value="" style="rounded=0;whiteSpace=wrap;html=1;strokeWidth=2;fontSize=20;fontStyle=1" vertex="1" parent="1">
          <mxGeometry x="410" y="400" width="60" height="60" as="geometry" />
        </mxCell>
        <mxCell id="zO6Guff0xEjTR-vVG68g-27" value="U3" style="text;html=1;align=center;verticalAlign=middle;resizable=0;points=[];autosize=1;strokeColor=none;fillColor=none;strokeWidth=2;fontSize=20;fontStyle=1" vertex="1" parent="1">
          <mxGeometry x="65" y="410" width="50" height="40" as="geometry" />
        </mxCell>
        <mxCell id="zO6Guff0xEjTR-vVG68g-28" value="" style="rounded=0;whiteSpace=wrap;html=1;strokeWidth=2;fontSize=20;fontStyle=1" vertex="1" parent="1">
          <mxGeometry x="110" y="480" width="60" height="60" as="geometry" />
        </mxCell>
        <mxCell id="zO6Guff0xEjTR-vVG68g-29" value="" style="rounded=0;whiteSpace=wrap;html=1;strokeWidth=2;fontSize=20;fontStyle=1" vertex="1" parent="1">
          <mxGeometry x="170" y="480" width="60" height="60" as="geometry" />
        </mxCell>
        <mxCell id="zO6Guff0xEjTR-vVG68g-30" value="" style="rounded=0;whiteSpace=wrap;html=1;strokeWidth=2;fontSize=20;fontStyle=1" vertex="1" parent="1">
          <mxGeometry x="230" y="480" width="60" height="60" as="geometry" />
        </mxCell>
        <mxCell id="zO6Guff0xEjTR-vVG68g-31" value="" style="rounded=0;whiteSpace=wrap;html=1;strokeWidth=2;fontSize=20;fontStyle=1" vertex="1" parent="1">
          <mxGeometry x="290" y="480" width="60" height="60" as="geometry" />
        </mxCell>
        <mxCell id="zO6Guff0xEjTR-vVG68g-32" value="" style="rounded=0;whiteSpace=wrap;html=1;strokeWidth=2;fontSize=20;fontStyle=1" vertex="1" parent="1">
          <mxGeometry x="350" y="480" width="60" height="60" as="geometry" />
        </mxCell>
        <mxCell id="zO6Guff0xEjTR-vVG68g-33" value="" style="rounded=0;whiteSpace=wrap;html=1;strokeWidth=2;fontSize=20;fontStyle=1" vertex="1" parent="1">
          <mxGeometry x="410" y="480" width="60" height="60" as="geometry" />
        </mxCell>
        <mxCell id="zO6Guff0xEjTR-vVG68g-34" value="" style="rounded=0;whiteSpace=wrap;html=1;strokeWidth=2;fontSize=20;fontStyle=1" vertex="1" parent="1">
          <mxGeometry x="110" y="560" width="60" height="60" as="geometry" />
        </mxCell>
        <mxCell id="zO6Guff0xEjTR-vVG68g-35" value="" style="rounded=0;whiteSpace=wrap;html=1;strokeWidth=2;fontSize=20;fontStyle=1" vertex="1" parent="1">
          <mxGeometry x="170" y="560" width="60" height="60" as="geometry" />
        </mxCell>
        <mxCell id="zO6Guff0xEjTR-vVG68g-36" value="" style="rounded=0;whiteSpace=wrap;html=1;strokeWidth=2;fontSize=20;fontStyle=1" vertex="1" parent="1">
          <mxGeometry x="230" y="560" width="60" height="60" as="geometry" />
        </mxCell>
        <mxCell id="zO6Guff0xEjTR-vVG68g-37" value="" style="rounded=0;whiteSpace=wrap;html=1;strokeWidth=2;fontSize=20;fontStyle=1" vertex="1" parent="1">
          <mxGeometry x="290" y="560" width="60" height="60" as="geometry" />
        </mxCell>
        <mxCell id="zO6Guff0xEjTR-vVG68g-38" value="" style="rounded=0;whiteSpace=wrap;html=1;strokeWidth=2;fontSize=20;fontStyle=1" vertex="1" parent="1">
          <mxGeometry x="350" y="560" width="60" height="60" as="geometry" />
        </mxCell>
        <mxCell id="zO6Guff0xEjTR-vVG68g-39" value="" style="rounded=0;whiteSpace=wrap;html=1;strokeWidth=2;fontSize=20;fontStyle=1" vertex="1" parent="1">
          <mxGeometry x="410" y="560" width="60" height="60" as="geometry" />
        </mxCell>
        <mxCell id="zO6Guff0xEjTR-vVG68g-40" value=".&lt;br style=&quot;font-size: 20px;&quot;&gt;.&lt;br style=&quot;font-size: 20px;&quot;&gt;.&lt;br style=&quot;font-size: 20px;&quot;&gt;.&lt;br style=&quot;font-size: 20px;&quot;&gt;.&lt;br style=&quot;font-size: 20px;&quot;&gt;.&lt;br style=&quot;font-size: 20px;&quot;&gt;." style="text;html=1;align=center;verticalAlign=middle;resizable=0;points=[];autosize=1;strokeColor=none;fillColor=none;strokeWidth=2;fontSize=20;fontStyle=1" vertex="1" parent="1">
          <mxGeometry x="75" y="465" width="30" height="180" as="geometry" />
        </mxCell>
        <mxCell id="zO6Guff0xEjTR-vVG68g-41" value="" style="rounded=0;whiteSpace=wrap;html=1;strokeWidth=2;fontSize=20;fontStyle=1" vertex="1" parent="1">
          <mxGeometry x="110" y="640" width="60" height="60" as="geometry" />
        </mxCell>
        <mxCell id="zO6Guff0xEjTR-vVG68g-42" value="" style="rounded=0;whiteSpace=wrap;html=1;strokeWidth=2;fontSize=20;fontStyle=1" vertex="1" parent="1">
          <mxGeometry x="170" y="640" width="60" height="60" as="geometry" />
        </mxCell>
        <mxCell id="zO6Guff0xEjTR-vVG68g-43" value="" style="rounded=0;whiteSpace=wrap;html=1;strokeWidth=2;fontSize=20;fontStyle=1" vertex="1" parent="1">
          <mxGeometry x="230" y="640" width="60" height="60" as="geometry" />
        </mxCell>
        <mxCell id="zO6Guff0xEjTR-vVG68g-44" value="" style="rounded=0;whiteSpace=wrap;html=1;strokeWidth=2;fontSize=20;fontStyle=1" vertex="1" parent="1">
          <mxGeometry x="290" y="640" width="60" height="60" as="geometry" />
        </mxCell>
        <mxCell id="zO6Guff0xEjTR-vVG68g-45" value="" style="rounded=0;whiteSpace=wrap;html=1;strokeWidth=2;fontSize=20;fontStyle=1" vertex="1" parent="1">
          <mxGeometry x="350" y="640" width="60" height="60" as="geometry" />
        </mxCell>
        <mxCell id="zO6Guff0xEjTR-vVG68g-46" value="" style="rounded=0;whiteSpace=wrap;html=1;strokeWidth=2;fontSize=20;fontStyle=1" vertex="1" parent="1">
          <mxGeometry x="410" y="640" width="60" height="60" as="geometry" />
        </mxCell>
        <mxCell id="zO6Guff0xEjTR-vVG68g-47" value="Un" style="text;html=1;align=center;verticalAlign=middle;resizable=0;points=[];autosize=1;strokeColor=none;fillColor=none;strokeWidth=2;fontSize=20;fontStyle=1" vertex="1" parent="1">
          <mxGeometry x="65" y="650" width="50" height="40" as="geometry" />
        </mxCell>
        <mxCell id="zO6Guff0xEjTR-vVG68g-48" value="&lt;font style=&quot;font-size: 40px;&quot;&gt;Raw Data&lt;/font&gt;" style="text;html=1;align=center;verticalAlign=middle;resizable=0;points=[];autosize=1;strokeColor=none;fillColor=none;strokeWidth=2;" vertex="1" parent="1">
          <mxGeometry x="190" y="120" width="200" height="60" as="geometry" />
        </mxCell>
        <mxCell id="zO6Guff0xEjTR-vVG68g-49" value="" style="shape=flexArrow;endArrow=classic;html=1;rounded=0;fillColor=#000000;strokeWidth=2;fontSize=20;fontStyle=1" edge="1" parent="1">
          <mxGeometry width="50" height="50" relative="1" as="geometry">
            <mxPoint x="510" y="277.5" as="sourcePoint" />
            <mxPoint x="630" y="277.5" as="targetPoint" />
          </mxGeometry>
        </mxCell>
        <mxCell id="zO6Guff0xEjTR-vVG68g-50" value="Noise Adding&lt;br style=&quot;font-size: 20px;&quot;&gt;Mechanism Varying&lt;br style=&quot;font-size: 20px;&quot;&gt;in&amp;nbsp;" style="text;align=center;verticalAlign=middle;resizable=0;points=[];autosize=1;strokeColor=none;fillColor=none;strokeWidth=2;html=1;fontSize=20;" vertex="1" parent="1">
          <mxGeometry x="460" y="105" width="200" height="90" as="geometry" />
        </mxCell>
        <mxCell id="nOdy6z8wYyWPpEZ9YoiU-1" value="&lt;span style=&quot;color: rgb(0, 0, 0); font-family: Helvetica; font-size: 20px; font-style: normal; font-variant-ligatures: normal; font-variant-caps: normal; font-weight: 400; letter-spacing: normal; orphans: 2; text-align: center; text-indent: 0px; text-transform: none; widows: 2; word-spacing: 0px; -webkit-text-stroke-width: 0px; background-color: rgb(251, 251, 251); text-decoration-thickness: initial; text-decoration-style: initial; text-decoration-color: initial; float: none; display: inline !important;&quot;&gt;$$\epsilon$$&lt;/span&gt;" style="text;whiteSpace=wrap;html=1;fontSize=20;" vertex="1" parent="1">
          <mxGeometry x="570" y="156" width="100" height="40" as="geometry" />
        </mxCell>
        <mxCell id="5Ct5Cq3mJ81Oh4HAMgTl-1" value="&lt;span style=&quot;color: rgb(0, 0, 0); font-family: Helvetica; font-size: 20px; font-style: normal; font-variant-ligatures: normal; font-variant-caps: normal; font-weight: 400; letter-spacing: normal; orphans: 2; text-align: center; text-indent: 0px; text-transform: none; widows: 2; word-spacing: 0px; -webkit-text-stroke-width: 0px; background-color: rgb(251, 251, 251); text-decoration-thickness: initial; text-decoration-style: initial; text-decoration-color: initial; float: none; display: inline !important;&quot;&gt;$$\epsilon_1$$&lt;/span&gt;" style="text;whiteSpace=wrap;html=1;fontSize=20;" vertex="1" parent="1">
          <mxGeometry x="550" y="218" width="100" height="40" as="geometry" />
        </mxCell>
        <mxCell id="5Ct5Cq3mJ81Oh4HAMgTl-2" value="" style="shape=flexArrow;endArrow=classic;html=1;rounded=0;fillColor=#000000;strokeWidth=2;fontSize=20;fontStyle=1" edge="1" parent="1">
          <mxGeometry width="50" height="50" relative="1" as="geometry">
            <mxPoint x="510" y="427.5" as="sourcePoint" />
            <mxPoint x="630" y="427.5" as="targetPoint" />
          </mxGeometry>
        </mxCell>
        <mxCell id="5Ct5Cq3mJ81Oh4HAMgTl-3" value="&lt;span style=&quot;color: rgb(0, 0, 0); font-family: Helvetica; font-size: 20px; font-style: normal; font-variant-ligatures: normal; font-variant-caps: normal; font-weight: 400; letter-spacing: normal; orphans: 2; text-align: center; text-indent: 0px; text-transform: none; widows: 2; word-spacing: 0px; -webkit-text-stroke-width: 0px; background-color: rgb(251, 251, 251); text-decoration-thickness: initial; text-decoration-style: initial; text-decoration-color: initial; float: none; display: inline !important;&quot;&gt;$$\epsilon_2$$&lt;/span&gt;" style="text;whiteSpace=wrap;html=1;fontSize=20;" vertex="1" parent="1">
          <mxGeometry x="550" y="365.5" width="100" height="40" as="geometry" />
        </mxCell>
        <mxCell id="5Ct5Cq3mJ81Oh4HAMgTl-5" value="&lt;font style=&quot;font-size: 20px;&quot;&gt;Private with Privacy Budget Epsilon Section from Figure 1&lt;/font&gt;" style="rounded=1;whiteSpace=wrap;html=1;" vertex="1" parent="1">
          <mxGeometry x="660" y="385" width="203" height="90" as="geometry" />
        </mxCell>
        <mxCell id="5Ct5Cq3mJ81Oh4HAMgTl-6" value="" style="shape=flexArrow;endArrow=classic;html=1;rounded=0;fillColor=#000000;strokeWidth=2;fontSize=20;fontStyle=1" edge="1" parent="1">
          <mxGeometry width="50" height="50" relative="1" as="geometry">
            <mxPoint x="510" y="664" as="sourcePoint" />
            <mxPoint x="630" y="664" as="targetPoint" />
          </mxGeometry>
        </mxCell>
        <mxCell id="5Ct5Cq3mJ81Oh4HAMgTl-7" value="&lt;span style=&quot;color: rgb(0, 0, 0); font-family: Helvetica; font-size: 20px; font-style: normal; font-variant-ligatures: normal; font-variant-caps: normal; font-weight: 400; letter-spacing: normal; orphans: 2; text-align: center; text-indent: 0px; text-transform: none; widows: 2; word-spacing: 0px; -webkit-text-stroke-width: 0px; background-color: rgb(251, 251, 251); text-decoration-thickness: initial; text-decoration-style: initial; text-decoration-color: initial; float: none; display: inline !important;&quot;&gt;$$\epsilon_n$$&lt;/span&gt;" style="text;whiteSpace=wrap;html=1;fontSize=20;" vertex="1" parent="1">
          <mxGeometry x="550" y="602" width="100" height="40" as="geometry" />
        </mxCell>
        <mxCell id="5Ct5Cq3mJ81Oh4HAMgTl-8" value="&lt;font style=&quot;font-size: 20px;&quot;&gt;Private with Privacy Budget Epsilon Section from Figure 1&lt;/font&gt;" style="rounded=1;whiteSpace=wrap;html=1;" vertex="1" parent="1">
          <mxGeometry x="660" y="621.5" width="203" height="90" as="geometry" />
        </mxCell>
        <mxCell id="5Ct5Cq3mJ81Oh4HAMgTl-9" value=".&lt;br style=&quot;font-size: 20px;&quot;&gt;.&lt;br style=&quot;font-size: 20px;&quot;&gt;.&lt;br style=&quot;font-size: 20px;&quot;&gt;.&lt;br style=&quot;font-size: 20px;&quot;&gt;." style="text;html=1;align=center;verticalAlign=middle;resizable=0;points=[];autosize=1;strokeColor=none;fillColor=none;strokeWidth=2;fontSize=20;fontStyle=1" vertex="1" parent="1">
          <mxGeometry x="545" y="475" width="30" height="130" as="geometry" />
        </mxCell>
        <mxCell id="5Ct5Cq3mJ81Oh4HAMgTl-10" value=".&lt;br style=&quot;font-size: 20px;&quot;&gt;.&lt;br style=&quot;font-size: 20px;&quot;&gt;.&lt;br style=&quot;font-size: 20px;&quot;&gt;.&lt;br style=&quot;font-size: 20px;&quot;&gt;." style="text;html=1;align=center;verticalAlign=middle;resizable=0;points=[];autosize=1;strokeColor=none;fillColor=none;strokeWidth=2;fontSize=20;fontStyle=1" vertex="1" parent="1">
          <mxGeometry x="740" y="480" width="30" height="130" as="geometry" />
        </mxCell>
        <mxCell id="5Ct5Cq3mJ81Oh4HAMgTl-11" value="" style="shape=flexArrow;endArrow=classic;html=1;rounded=0;exitX=1;exitY=0.5;exitDx=0;exitDy=0;fillColor=#030303;" edge="1" parent="1" source="5Ct5Cq3mJ81Oh4HAMgTl-5">
          <mxGeometry width="50" height="50" relative="1" as="geometry">
            <mxPoint x="920" y="429.58" as="sourcePoint" />
            <mxPoint x="1160" y="429.58" as="targetPoint" />
          </mxGeometry>
        </mxCell>
        <mxCell id="EsTYwiO1j59ATy-OEEhr-1" value="" style="shape=link;html=1;rounded=0;exitX=1;exitY=0;exitDx=0;exitDy=0;strokeColor=#000000;strokeWidth=2;fontSize=20;fontStyle=1" edge="1" parent="1">
          <mxGeometry width="100" relative="1" as="geometry">
            <mxPoint x="863" y="277.5" as="sourcePoint" />
            <mxPoint x="980" y="430" as="targetPoint" />
            <Array as="points">
              <mxPoint x="980" y="278" />
              <mxPoint x="980" y="350" />
            </Array>
          </mxGeometry>
        </mxCell>
        <mxCell id="EsTYwiO1j59ATy-OEEhr-2" value="" style="shape=link;html=1;rounded=0;exitX=1.003;exitY=0.606;exitDx=0;exitDy=0;strokeColor=#000000;strokeWidth=2;fontSize=20;fontStyle=1;exitPerimeter=0;" edge="1" parent="1" source="5Ct5Cq3mJ81Oh4HAMgTl-8">
          <mxGeometry width="100" relative="1" as="geometry">
            <mxPoint x="895" y="676.25" as="sourcePoint" />
            <mxPoint x="980" y="433.75" as="targetPoint" />
            <Array as="points">
              <mxPoint x="980" y="676.25" />
            </Array>
          </mxGeometry>
        </mxCell>
        <mxCell id="zcRryGnHn4Gvlg2a7jeR-1" value="&lt;span style=&quot;font-size: 20px;&quot;&gt;Record Average &lt;br&gt;Model Accuracy For&lt;br&gt;&lt;/span&gt;" style="text;html=1;align=center;verticalAlign=middle;resizable=0;points=[];autosize=1;strokeColor=none;fillColor=none;strokeWidth=2;" vertex="1" parent="1">
          <mxGeometry x="865" y="145" width="200" height="60" as="geometry" />
        </mxCell>
        <mxCell id="zcRryGnHn4Gvlg2a7jeR-2" value="&lt;span style=&quot;color: rgb(0, 0, 0); font-family: Helvetica; font-size: 20px; font-style: normal; font-variant-ligatures: normal; font-variant-caps: normal; font-weight: 400; letter-spacing: normal; orphans: 2; text-align: center; text-indent: 0px; text-transform: none; widows: 2; word-spacing: 0px; -webkit-text-stroke-width: 0px; background-color: rgb(251, 251, 251); text-decoration-thickness: initial; text-decoration-style: initial; text-decoration-color: initial; float: none; display: inline !important;&quot;&gt;$$\epsilon_m, m \in \{1,2,\ldots,n\}$$&lt;/span&gt;" style="text;whiteSpace=wrap;html=1;fontSize=20;" vertex="1" parent="1">
          <mxGeometry x="880" y="198" width="100" height="40" as="geometry" />
        </mxCell>
        <mxCell id="PWIgDx9niMJzloDm0xmk-1" value="" style="endArrow=classic;html=1;rounded=0;strokeWidth=2;fontSize=20;fontStyle=1" edge="1" parent="1">
          <mxGeometry width="50" height="50" relative="1" as="geometry">
            <mxPoint x="1249" y="549.4100000000001" as="sourcePoint" />
            <mxPoint x="1489" y="549.4100000000001" as="targetPoint" />
          </mxGeometry>
        </mxCell>
        <mxCell id="PWIgDx9niMJzloDm0xmk-2" value="" style="endArrow=classic;html=1;rounded=0;strokeWidth=2;fontSize=20;fontStyle=1" edge="1" parent="1">
          <mxGeometry width="50" height="50" relative="1" as="geometry">
            <mxPoint x="1249" y="549.4100000000001" as="sourcePoint" />
            <mxPoint x="1249" y="309.40999999999997" as="targetPoint" />
          </mxGeometry>
        </mxCell>
        <mxCell id="PWIgDx9niMJzloDm0xmk-3" value="" style="curved=1;endArrow=none;html=1;rounded=0;endFill=0;strokeWidth=2;fontSize=20;fontStyle=1" edge="1" parent="1">
          <mxGeometry width="50" height="50" relative="1" as="geometry">
            <mxPoint x="1480" y="355.24" as="sourcePoint" />
            <mxPoint x="1249" y="528.2400000000001" as="targetPoint" />
            <Array as="points">
              <mxPoint x="1390" y="355.07" />
              <mxPoint x="1319" y="378.24000000000007" />
              <mxPoint x="1269" y="428.24000000000007" />
            </Array>
          </mxGeometry>
        </mxCell>
        <mxCell id="PWIgDx9niMJzloDm0xmk-5" value="&lt;span style=&quot;color: rgb(0, 0, 0); font-family: Helvetica; font-size: 20px; font-style: normal; font-variant-ligatures: normal; font-variant-caps: normal; font-weight: 400; letter-spacing: normal; orphans: 2; text-align: center; text-indent: 0px; text-transform: none; widows: 2; word-spacing: 0px; -webkit-text-stroke-width: 0px; background-color: rgb(251, 251, 251); text-decoration-thickness: initial; text-decoration-style: initial; text-decoration-color: initial; float: none; display: inline !important;&quot;&gt;$$\epsilon$$&lt;/span&gt;" style="text;whiteSpace=wrap;html=1;fontSize=20;rotation=0;strokeWidth=2;" vertex="1" parent="1">
          <mxGeometry x="1307" y="552.24" width="20" height="20" as="geometry" />
        </mxCell>
        <mxCell id="PWIgDx9niMJzloDm0xmk-10" value="&lt;font style=&quot;font-size: 20px;&quot;&gt;Accuracy&lt;/font&gt;" style="text;html=1;align=center;verticalAlign=middle;resizable=0;points=[];autosize=1;strokeColor=none;fillColor=none;rotation=270;strokeWidth=2;fontSize=20;" vertex="1" parent="1">
          <mxGeometry x="1170" y="406.24" width="110" height="40" as="geometry" />
        </mxCell>
        <mxCell id="PWIgDx9niMJzloDm0xmk-11" value="" style="curved=1;endArrow=none;html=1;rounded=0;endFill=0;strokeWidth=2;fontSize=20;fontStyle=1;dashed=1;" edge="1" parent="1">
          <mxGeometry width="50" height="50" relative="1" as="geometry">
            <mxPoint x="1470" y="386.24" as="sourcePoint" />
            <mxPoint x="1250" y="526.24" as="targetPoint" />
            <Array as="points">
              <mxPoint x="1400" y="365.07" />
              <mxPoint x="1400" y="406.24" />
              <mxPoint x="1329" y="388.24000000000007" />
              <mxPoint x="1329" y="436.24" />
              <mxPoint x="1279" y="438.24000000000007" />
            </Array>
          </mxGeometry>
        </mxCell>
        <mxCell id="PWIgDx9niMJzloDm0xmk-12" value="" style="curved=1;endArrow=none;html=1;rounded=0;endFill=0;strokeWidth=2;fontSize=20;fontStyle=1;dashed=1;dashPattern=1 1;" edge="1" parent="1">
          <mxGeometry width="50" height="50" relative="1" as="geometry">
            <mxPoint x="1480" y="366.24" as="sourcePoint" />
            <mxPoint x="1250" y="526.24" as="targetPoint" />
            <Array as="points">
              <mxPoint x="1410" y="375.07" />
              <mxPoint x="1410" y="416.24" />
              <mxPoint x="1380" y="456.24" />
              <mxPoint x="1330" y="426.24" />
              <mxPoint x="1300" y="496.24" />
            </Array>
          </mxGeometry>
        </mxCell>
        <mxCell id="PWIgDx9niMJzloDm0xmk-13" value="&lt;font style=&quot;font-size: 40px;&quot;&gt;Accuracy vs Privacy&lt;/font&gt;" style="text;html=1;align=center;verticalAlign=middle;resizable=0;points=[];autosize=1;strokeColor=none;fillColor=none;strokeWidth=2;" vertex="1" parent="1">
          <mxGeometry x="1178" y="140" width="380" height="60" as="geometry" />
        </mxCell>
        <mxCell id="PWIgDx9niMJzloDm0xmk-14" value="$$\left(\frac{1}{Privacy}\right)$$" style="text;html=1;align=center;verticalAlign=middle;resizable=0;points=[];autosize=1;strokeColor=none;fillColor=none;rotation=0;strokeWidth=2;fontSize=13;" vertex="1" parent="1">
          <mxGeometry x="1268" y="555" width="200" height="30" as="geometry" />
        </mxCell>
      </root>
    </mxGraphModel>
  </diagram>
</mxfile>
